<svg width="500" height="500" viewBox="0 0 500 500" fill="none" xmlns="http://www.w3.org/2000/svg">
<path d="M500 382.4H0V382.65H500V382.4Z" fill="#EBEBEB"/>
<path d="M449.9 398.49H429.83V398.74H449.9V398.49Z" fill="#EBEBEB"/>
<path d="M389.5 394.99H357.48V395.24H389.5V394.99Z" fill="#EBEBEB"/>
<path d="M311.17 389.21H274.19V389.46H311.17V389.21Z" fill="#EBEBEB"/>
<path d="M118.65 396.57H75.46V396.82H118.65V396.57Z" fill="#EBEBEB"/>
<path d="M66.5497 396.57H60.2197V396.82H66.5497V396.57Z" fill="#EBEBEB"/>
<path d="M169.23 389.08H131.75V389.33H169.23V389.08Z" fill="#EBEBEB"/>
<path d="M237 337.8H43.91C42.3973 337.797 40.9475 337.195 39.8788 336.124C38.8102 335.053 38.21 333.603 38.21 332.09V60.66C38.2231 59.156 38.8292 57.718 39.8964 56.6582C40.9637 55.5985 42.4059 55.0026 43.91 55H237C238.514 55 239.967 55.6016 241.038 56.6724C242.108 57.7433 242.71 59.1956 242.71 60.71V332.09C242.71 333.604 242.108 335.057 241.038 336.128C239.967 337.198 238.514 337.8 237 337.8ZM43.91 55.2C42.4636 55.2026 41.0774 55.7791 40.0556 56.8027C39.0338 57.8264 38.46 59.2136 38.46 60.66V332.09C38.46 333.536 39.0338 334.924 40.0556 335.947C41.0774 336.971 42.4636 337.547 43.91 337.55H237C238.447 337.547 239.834 336.971 240.858 335.948C241.881 334.924 242.457 333.537 242.46 332.09V60.66C242.457 59.2127 241.881 57.8255 240.858 56.8021C239.834 55.7787 238.447 55.2026 237 55.2H43.91Z" fill="#EBEBEB"/>
<path d="M453.31 337.8H260.21C258.696 337.797 257.246 337.195 256.175 336.125C255.105 335.054 254.503 333.604 254.5 332.09V60.66C254.516 59.1551 255.124 57.7171 256.193 56.6576C257.262 55.5981 258.705 55.0025 260.21 55H453.31C454.812 55.0052 456.252 55.6022 457.317 56.6617C458.382 57.7212 458.987 59.1578 459 60.66V332.09C459 333.601 458.401 335.05 457.335 336.121C456.268 337.191 454.821 337.795 453.31 337.8ZM260.21 55.2C258.763 55.2026 257.375 55.7787 256.352 56.8021C255.329 57.8255 254.753 59.2127 254.75 60.66V332.09C254.753 333.537 255.329 334.924 256.352 335.948C257.375 336.971 258.763 337.547 260.21 337.55H453.31C454.757 337.547 456.145 336.971 457.168 335.948C458.191 334.924 458.767 333.537 458.77 332.09V60.66C458.767 59.2127 458.191 57.8255 457.168 56.8021C456.145 55.7787 454.757 55.2026 453.31 55.2H260.21Z" fill="#EBEBEB"/>
<path d="M430.23 330.7C407.81 333.7 405.45 366.2 381.41 339.38C364.79 320.85 351.53 339.45 344.97 382.38H464.1C464 362.13 451.24 327.92 430.23 330.7Z" fill="#EBEBEB"/>
<path d="M272.47 307.87C206.47 312.15 199.47 359.05 128.67 320.38C79.7198 293.66 40.6698 320.48 21.3398 382.38H372.24C372 353.18 334.36 303.85 272.47 307.87Z" fill="#EBEBEB"/>
<path d="M182.38 348.42C233.74 354.63 285.54 346.49 325.1 336.88C364.66 327.27 392.78 354.16 408.1 382.4H50.4297C62.2097 368.26 104.43 339 182.38 348.42Z" fill="#F0F0F0"/>
<path d="M343.2 363.06C283.83 365.51 271.2 366.47 225.59 361C179.98 355.53 144.11 366.33 126.43 382.4H447.22C433.65 374.35 392.91 361 343.2 363.06Z" fill="#FAFAFA"/>
<path d="M81.1471 230.247C92.3142 229.46 100.729 219.77 99.9424 208.603C99.1557 197.436 89.4651 189.021 78.298 189.807C67.1309 190.594 58.7159 200.285 59.5027 211.452C60.2894 222.619 69.98 231.034 81.1471 230.247Z" fill="#F0F0F0"/>
<path d="M445.84 130.49H342C342 130.49 343.5 122.27 362.71 122.74C358.89 110.74 369.64 97.6399 393.9 97.1299C418.16 96.6199 409.63 116.13 409.63 116.13C409.63 116.13 450.39 109.13 438.05 123.65C458.28 124.38 462.28 127 445.84 130.49Z" fill="#F0F0F0"/>
<path d="M92.38 225.64C88.99 208.74 117.86 190.24 171.01 189.53C224.16 188.82 197.5 216.36 197.5 216.36C197.5 216.36 289.35 206.42 256.44 226.97C300.24 227.97 307.89 231.61 270.55 236.58H44C44 236.58 50.65 225 92.38 225.64Z" fill="#FAFAFA"/>
<path d="M181.32 130.22H73.7599C73.7599 130.22 49.7599 116.44 78.2099 114.67C73.3199 102.89 85.3299 82.91 127.32 82.44C169.31 81.97 147.54 109.55 147.54 109.55C147.54 109.55 211.54 91.11 189.1 120.44C198.87 120.44 233.76 130.22 181.32 130.22Z" fill="#F5F5F5"/>
<path d="M396.34 261H348C348 261 337.21 254.81 350 254C347.81 248.7 353.2 239.73 372.07 239.52C390.94 239.31 381.16 251.7 381.16 251.7C381.16 251.7 409.92 243.41 399.83 256.59C404.23 256.62 419.9 261 396.34 261Z" fill="#F5F5F5"/>
<path d="M291.24 88.2498C291.24 88.2498 304.87 79.5098 314.36 91.9298C306.57 84.2098 291.76 91.9898 291.76 91.9898C291.76 91.9898 274.81 84.2898 269.16 92.0498C275.2 79.5798 291.24 88.2498 291.24 88.2498Z" fill="#F0F0F0"/>
<path d="M325.39 187.42C325.39 187.42 333.6 182.16 339.31 189.64C334.62 184.99 325.71 189.64 325.71 189.64C325.71 189.64 315.5 185.01 312.1 189.64C315.74 182.2 325.39 187.42 325.39 187.42Z" fill="#F0F0F0"/>
<path d="M175.87 65.5199C175.87 65.5199 179.98 62.8899 182.87 66.6299C180.53 64.3099 176.07 66.6299 176.07 66.6299C176.07 66.6299 170.97 64.3099 169.27 66.6299C171.05 62.9099 175.87 65.5199 175.87 65.5199Z" fill="#F5F5F5"/>
<path d="M75.5797 155.31C75.5797 155.31 79.6797 152.68 82.5797 156.42C80.2297 154.09 75.7797 156.42 75.7797 156.42C75.7797 156.42 70.6697 154.11 68.9697 156.42C70.7497 152.7 75.5797 155.31 75.5797 155.31Z" fill="#F5F5F5"/>
<path d="M250 427.56C357.083 427.56 443.89 422.492 443.89 416.24C443.89 409.988 357.083 404.92 250 404.92C142.918 404.92 56.1104 409.988 56.1104 416.24C56.1104 422.492 142.918 427.56 250 427.56Z" fill="#F5F5F5"/>
<path d="M288.8 213C288.15 202.78 281.08 203.62 282.41 206.72C281.16 205.56 278.02 204.12 274.72 203.39C269.97 202.34 266.8 203.61 267.97 205.39C260.58 205.84 259.08 212.53 261.47 213.89C256.41 216.11 255.67 224.16 263.47 226.11C271.27 228.06 268.53 236.17 275.59 238.17C282.65 240.17 290.7 233.45 289.53 230.45C292.53 228.45 296.26 226.36 293.42 220.09C299.49 217.75 291.18 212.84 288.8 213Z" fill="#263238"/>
<path d="M271.26 408.73C270.26 408.82 269.26 408.73 268.85 408.33C268.756 408.215 268.699 408.073 268.688 407.925C268.678 407.776 268.713 407.628 268.79 407.5C268.844 407.382 268.921 407.277 269.018 407.191C269.114 407.105 269.227 407.04 269.35 407C270.66 406.51 273.61 407.86 273.74 407.92C273.778 407.933 273.811 407.957 273.834 407.989C273.857 408.021 273.87 408.06 273.87 408.1C273.87 408.14 273.857 408.178 273.834 408.211C273.811 408.243 273.778 408.267 273.74 408.28C272.928 408.499 272.098 408.649 271.26 408.73ZM269.85 407.28C269.724 407.289 269.599 407.316 269.48 407.36C269.405 407.382 269.336 407.421 269.277 407.473C269.219 407.524 269.172 407.588 269.14 407.66C269.02 407.91 269.08 408.02 269.14 408.08C269.56 408.57 271.59 408.4 273.07 408.08C272.059 407.608 270.965 407.336 269.85 407.28Z" fill="#003366"/>
<path d="M273.68 408.28C273.655 408.29 273.626 408.29 273.6 408.28C272.6 407.94 270.51 406.37 270.6 405.45C270.6 405.23 270.74 404.95 271.26 404.85C271.448 404.813 271.642 404.814 271.829 404.854C272.016 404.893 272.194 404.97 272.35 405.08C273.45 405.83 273.86 407.98 273.88 408.08C273.883 408.114 273.878 408.147 273.866 408.178C273.854 408.209 273.835 408.237 273.81 408.26C273.77 408.281 273.725 408.288 273.68 408.28ZM271.42 405.2H271.3C270.96 405.26 270.95 405.4 270.95 405.44C270.95 406 272.34 407.25 273.39 407.75C273.215 406.843 272.765 406.012 272.1 405.37C271.902 405.233 271.66 405.173 271.42 405.2Z" fill="#003366"/>
<path d="M283.4 411.63L275.36 412.35L272.87 393.8L280.91 393.07L283.4 411.63Z" fill="#B55B52"/>
<path d="M274.43 407.08L283.21 406.29C283.371 406.275 283.532 406.316 283.666 406.405C283.801 406.494 283.901 406.626 283.95 406.78L286.18 413.78C286.235 413.947 286.251 414.125 286.229 414.299C286.206 414.474 286.144 414.641 286.048 414.789C285.952 414.937 285.825 415.061 285.674 415.153C285.524 415.245 285.355 415.302 285.18 415.32C282.01 415.55 279.18 415.63 275.24 415.99C270.58 416.41 271.81 416.86 266.36 417.43C263.06 417.77 262.13 414.08 263.51 413.77C269.83 412.39 270.32 410.4 272.58 407.89C273.077 407.402 273.735 407.114 274.43 407.08Z" fill="#263238"/>
<path d="M256.671 261.31L255.671 261.21L254.821 261.1C254.271 261.04 253.741 260.93 253.201 260.84C252.131 260.65 251.091 260.41 250.061 260.16C248.03 259.646 246.028 259.029 244.061 258.31C240.124 256.875 236.333 255.067 232.741 252.91L231.401 252.08L230.741 251.67L230.371 251.44C230.145 251.289 229.928 251.125 229.721 250.95C229.531 250.79 229.361 250.63 229.231 250.5L228.861 250.1C228.516 249.695 228.208 249.26 227.941 248.8C227.711 248.41 227.541 248.08 227.381 247.75C227.091 247.11 226.871 246.52 226.671 245.96C225.994 243.921 225.483 241.831 225.141 239.71C224.446 235.747 224.085 231.733 224.061 227.71L230.011 226.56C231.501 230.08 232.831 233.71 234.241 237.12C234.581 237.97 234.941 238.81 235.311 239.61C235.681 240.41 236.021 241.19 236.381 241.85C236.571 242.17 236.751 242.47 236.901 242.68C236.951 242.755 237.012 242.822 237.081 242.88C237.081 242.88 237.131 242.88 237.021 242.74L236.901 242.6C236.834 242.523 236.761 242.453 236.681 242.39C236.566 242.29 236.445 242.197 236.321 242.11C236.081 241.96 236.231 242.05 236.261 242.11L236.871 242.4L238.071 242.98C241.279 244.477 244.587 245.75 247.971 246.79C249.651 247.32 251.351 247.79 253.031 248.19C253.881 248.39 254.721 248.57 255.551 248.74L256.781 248.98L257.781 249.15L256.671 261.31Z" fill="#B65B52"/>
<path d="M266.21 263.29C257.59 268.8 244.95 262.65 244.95 262.65C243.44 257.2 242.61 247.53 242.61 243.74C242.61 243.74 257.23 245.53 267.18 244.6C276.9 243.69 273.29 258.77 266.21 263.29Z" fill="#003366"/>
<path d="M230.05 231.33L232.36 225.1L223.55 223.22C223.55 223.22 221.93 228.17 225.26 231.85L230.05 231.33Z" fill="#B55B52"/>
<path d="M229.62 218.4L225.62 218.83C225.156 218.875 224.722 219.08 224.394 219.41C224.065 219.741 223.862 220.176 223.82 220.64L223.54 223.22L232.35 225.1L231.85 220.21C231.827 219.943 231.75 219.684 231.624 219.447C231.498 219.211 231.326 219.002 231.118 218.833C230.91 218.664 230.67 218.539 230.413 218.464C230.156 218.39 229.886 218.368 229.62 218.4Z" fill="#B55B52"/>
<path d="M251 255C250.55 262.64 251 278.33 256.6 307.14L299.6 303.25C299.33 297.15 294.2 279.25 296.13 251.81C296.207 250.813 296.083 249.811 295.764 248.863C295.444 247.916 294.937 247.042 294.272 246.295C293.608 245.548 292.799 244.943 291.895 244.516C290.99 244.089 290.009 243.849 289.01 243.81C286.89 243.74 284.54 243.72 282.24 243.81C276.133 244.011 270.043 244.562 264 245.46C261.67 245.89 259.41 246.46 257.47 247C255.691 247.492 254.111 248.527 252.951 249.962C251.791 251.397 251.109 253.158 251 255Z" fill="#003366"/>
<path opacity="0.1" d="M275.84 272.32C276.03 279.39 272.02 285.08 266.89 285.03C261.76 284.98 257.43 279.19 257.24 272.12C257.05 265.05 261.06 259.35 266.24 259.41C271.42 259.47 275.65 265.24 275.84 272.32Z" fill="black"/>
<path d="M277.34 230.09C277.34 235.75 278.26 242.25 281.76 244.78C276.936 248.895 271.548 252.3 265.76 254.89C259.55 250.5 262.42 246.89 262.42 246.89C267.85 243.89 267.47 239.78 265.77 235.35L273.86 228.23C275.18 226.86 277.34 228 277.34 230.09Z" fill="#B55B52"/>
<path opacity="0.2" d="M277.35 230.09C277.35 228.01 275.18 226.87 273.84 228.21L265.74 235.33C266.615 237.265 266.96 239.398 266.74 241.51C268.642 241.573 270.532 241.179 272.25 240.36C274.486 239.349 276.367 237.691 277.65 235.6C277.431 233.772 277.331 231.931 277.35 230.09Z" fill="black"/>
<path d="M285.59 222.83C282.78 230.38 281.52 234.94 276.35 237.68C268.56 241.8 259.91 235.33 260.35 227.09C260.75 219.66 265.29 208.57 273.93 207.85C275.819 207.654 277.726 207.943 279.472 208.687C281.219 209.432 282.747 210.609 283.913 212.107C285.08 213.606 285.845 215.376 286.139 217.252C286.432 219.128 286.243 221.047 285.59 222.83Z" fill="#B55B52"/>
<path d="M283.36 213.08C279.36 216.24 280.36 221.28 282.67 221.36C279.11 224.24 280.11 227.95 283.02 227.63C288 227.09 291.37 212.18 283.36 213.08Z" fill="#263238"/>
<path d="M285.58 213.65C281.69 215.18 278.66 213.51 278.5 211.38C275.61 212.82 263.72 211.17 266.44 209.45C268.5 205.78 278.71 203.8 285.58 213.65Z" fill="#263238"/>
<path d="M262.74 225.76L272.35 226.76C272.35 226.76 271.18 229.76 266.7 229.25C263 228.83 262.74 225.76 262.74 225.76Z" fill="white"/>
<path d="M273.36 219.49C273.02 220.12 272.41 220.44 272 220.22C271.59 220 271.54 219.31 271.88 218.69C272.22 218.07 272.82 217.74 273.23 217.96C273.64 218.18 273.7 218.87 273.36 219.49Z" fill="#263238"/>
<path d="M266.001 217.13C265.661 217.76 265.061 218.13 264.651 217.86C264.241 217.59 264.181 216.95 264.521 216.33C264.861 215.71 265.471 215.33 265.881 215.6C266.291 215.87 266.301 216.51 266.001 217.13Z" fill="#263238"/>
<path d="M276.941 218.23C276.866 218.204 276.8 218.159 276.749 218.099C276.698 218.04 276.664 217.967 276.651 217.89C276.591 217.374 276.411 216.88 276.124 216.447C275.838 216.014 275.453 215.655 275.001 215.4C274.9 215.352 274.821 215.267 274.782 215.162C274.743 215.058 274.746 214.942 274.791 214.84C274.812 214.789 274.844 214.744 274.883 214.706C274.923 214.668 274.97 214.639 275.022 214.62C275.074 214.602 275.129 214.594 275.183 214.597C275.238 214.6 275.292 214.615 275.341 214.64C275.927 214.948 276.431 215.394 276.809 215.939C277.187 216.484 277.427 217.112 277.511 217.77C277.519 217.824 277.517 217.879 277.504 217.932C277.49 217.985 277.467 218.035 277.434 218.078C277.402 218.122 277.361 218.159 277.314 218.187C277.267 218.215 277.215 218.233 277.161 218.24C277.088 218.258 277.011 218.254 276.941 218.23Z" fill="#263238"/>
<path d="M263.85 213.86C263.766 213.829 263.693 213.773 263.64 213.7C263.577 213.61 263.553 213.498 263.572 213.39C263.59 213.281 263.651 213.185 263.74 213.12C264.268 212.72 264.885 212.454 265.538 212.344C266.191 212.235 266.861 212.285 267.49 212.49C267.542 212.509 267.59 212.538 267.63 212.576C267.67 212.613 267.703 212.659 267.725 212.709C267.747 212.76 267.759 212.814 267.76 212.869C267.761 212.924 267.751 212.979 267.73 213.03C267.688 213.132 267.608 213.212 267.507 213.255C267.406 213.298 267.292 213.3 267.19 213.26C266.683 213.107 266.147 213.075 265.625 213.169C265.104 213.263 264.612 213.479 264.19 213.8C264.14 213.833 264.085 213.855 264.026 213.865C263.968 213.875 263.908 213.874 263.85 213.86Z" fill="#263238"/>
<path d="M267.55 218.12C266.113 219.504 264.491 220.682 262.73 221.62C262.982 222.066 263.328 222.451 263.744 222.748C264.16 223.046 264.637 223.248 265.14 223.34L267.55 218.12Z" fill="#A02724"/>
<path d="M286 230.23C285.492 230.881 284.857 231.421 284.133 231.818C283.409 232.216 282.612 232.461 281.79 232.54C279.79 232.73 279.18 230.03 280.31 228.1C281.31 226.36 283.41 224.7 285.31 225.01C287.21 225.32 287.68 228 286 230.23Z" fill="#B55B52"/>
<path opacity="0.2" d="M272.87 393.81L274.27 404.24L282.31 403.51L280.92 393.08L272.87 393.81Z" fill="black"/>
<path d="M256.63 307.11C255.472 321.934 255.831 336.838 257.7 351.59C260.92 377.02 270.32 399.72 270.32 399.72L283.71 396.21C283.71 396.21 280.59 377.13 278.93 352.02C277.12 324.64 284.93 304.55 284.93 304.55L256.63 307.11Z" fill="#263238"/>
<path opacity="0.3" d="M280.24 318C273.24 320.2 275.9 332.06 278.73 340C278.936 332.607 279.782 325.246 281.26 318H280.24Z" fill="black"/>
<path d="M327.73 391.83C327.01 392.58 326.22 393.21 325.65 393.13C325.504 393.102 325.369 393.031 325.264 392.926C325.159 392.821 325.088 392.686 325.06 392.54C324.991 392.288 325.023 392.019 325.15 391.79C325.82 390.57 328.93 389.64 329.06 389.6C329.098 389.591 329.138 389.593 329.175 389.605C329.212 389.617 329.245 389.64 329.27 389.67C329.292 389.703 329.303 389.741 329.303 389.78C329.303 389.819 329.292 389.857 329.27 389.89C328.817 390.582 328.301 391.231 327.73 391.83ZM325.73 391.67C325.644 391.76 325.57 391.861 325.51 391.97C325.468 392.038 325.44 392.114 325.428 392.193C325.416 392.272 325.42 392.353 325.44 392.43C325.52 392.69 325.64 392.74 325.72 392.75C326.36 392.84 327.78 391.37 328.67 390.14C327.593 390.453 326.588 390.973 325.71 391.67H325.73Z" fill="#003366"/>
<path d="M329.26 389.92H329.19C328.19 390.32 325.6 390.51 325.05 389.77C324.91 389.6 324.83 389.3 325.15 388.89C325.27 388.735 325.421 388.607 325.593 388.514C325.765 388.421 325.955 388.365 326.15 388.35C327.47 388.19 329.15 389.54 329.27 389.59C329.296 389.612 329.315 389.64 329.327 389.672C329.339 389.703 329.344 389.737 329.34 389.77C329.326 389.826 329.298 389.877 329.26 389.92ZM325.53 389.08L325.45 389.16C325.24 389.44 325.32 389.55 325.35 389.58C325.69 390.02 327.58 390.03 328.7 389.72C327.981 389.133 327.097 388.783 326.17 388.72C325.919 388.755 325.69 388.883 325.53 389.08Z" fill="#003366"/>
<path d="M338.751 385.84L333.361 391.86L318.891 379.98L324.281 373.96L338.751 385.84Z" fill="#B55B52"/>
<path d="M329 388.52L335.09 382.15C335.199 382.021 335.35 381.935 335.517 381.907C335.684 381.88 335.855 381.913 336 382L342.29 385.81C342.443 385.902 342.573 386.028 342.67 386.178C342.767 386.327 342.829 386.497 342.851 386.674C342.874 386.852 342.855 387.031 342.798 387.2C342.74 387.369 342.645 387.523 342.52 387.65C340.28 389.91 336.97 393.1 334.2 395.99C330.97 399.36 333.27 397.33 329.48 401.29C327.18 403.69 324.13 402.03 324.87 400.82C328.24 395.3 328.08 393.7 328.13 390.33C328.185 389.64 328.495 388.995 329 388.52Z" fill="#263238"/>
<path opacity="0.2" d="M318.9 379.98L327.03 386.66L332.42 380.64L324.29 373.96L318.9 379.98Z" fill="black"/>
<path d="M271.891 305.73C271.891 305.73 277.811 329.44 289.051 350.26C301.351 373.06 321.211 386.07 321.211 386.07L330.731 375.8C330.731 375.8 314.391 359.65 309.521 342.43C302.091 316.15 299.651 303.22 299.651 303.22L271.891 305.73Z" fill="#263238"/>
<path d="M316.23 383.71C316.23 383.76 322.63 388.38 322.63 388.38L332.78 376.54L329.22 372.9L316.23 383.71Z" fill="#003366"/>
<path d="M267.821 395.93C267.761 395.93 269.821 402.75 269.821 402.75L285.821 400.41L284.951 395.1L267.821 395.93Z" fill="#003366"/>
<path d="M299.85 253L300.69 255.82L301.61 258.72C302.23 260.64 302.9 262.54 303.61 264.38C304.32 266.22 305.08 268 305.9 269.63C306.605 271.074 307.467 272.435 308.47 273.69L308.62 273.86L308.68 273.93L308.58 273.86C308.481 273.796 308.377 273.739 308.27 273.69C308.084 273.592 307.89 273.512 307.69 273.45C307.096 273.275 306.47 273.241 305.86 273.35C305.374 273.435 304.913 273.626 304.51 273.91C304.03 274.29 304.14 274.36 304.23 274.26C304.422 274.067 304.587 273.848 304.72 273.61C305.601 272.013 306.334 270.34 306.91 268.61C308.27 264.84 309.42 260.7 310.63 256.69L316.63 257.36C316.805 261.871 316.55 266.388 315.87 270.85C315.516 273.296 314.889 275.694 314 278C313.699 278.748 313.331 279.468 312.9 280.15C312.262 281.204 311.415 282.117 310.41 282.83C309.509 283.454 308.476 283.861 307.392 284.019C306.308 284.177 305.201 284.082 304.16 283.74C303.706 283.594 303.267 283.403 302.85 283.17C302.502 282.988 302.168 282.781 301.85 282.55L301.44 282.23L301.2 282.03L300.76 281.65C298.769 279.811 297.061 277.688 295.69 275.35C294.454 273.309 293.354 271.187 292.4 269C291.45 266.87 290.63 264.72 289.89 262.56C289.53 261.48 289.18 260.4 288.89 259.3C288.6 258.2 288.29 257.15 288 255.91L299.85 253Z" fill="#B65B52"/>
<path d="M311 258.31L309.49 251.85L318.37 252.47C318.37 252.47 319.45 256.19 315.7 259.47L311 258.31Z" fill="#B55B52"/>
<path d="M313.58 246L316.91 247.22C317.392 247.398 317.805 247.724 318.089 248.152C318.373 248.58 318.513 249.087 318.49 249.6L318.33 252.46L309.45 251.84L310.39 247.73C310.467 247.395 310.614 247.081 310.822 246.808C311.03 246.535 311.293 246.309 311.595 246.145C311.897 245.982 312.23 245.884 312.572 245.859C312.914 245.834 313.258 245.882 313.58 246Z" fill="#B55B52"/>
<path d="M292.45 244.48C302.12 247.83 304.45 262.24 304.45 262.24C302.45 265.72 295.99 269.5 290.56 272.38C290.56 272.38 287.31 269.57 283.87 260.19C280.5 251 284.51 241.72 292.45 244.48Z" fill="#003366"/>
<path d="M149.49 292.65C142.27 250.02 139.49 196.52 139.49 196.52L177.84 207.32C177.84 207.32 174.47 267.26 172.84 296.27C171.19 326.43 169.46 395.19 169.46 395.19H151.22C151.22 395.19 145.49 329.94 149.49 292.65Z" fill="#263238"/>
<path opacity="0.3" d="M143.87 250.49C144.87 259.68 145.99 269.31 147.34 278.76C150.88 264.32 152.87 236.97 152.87 236.97L143.87 250.49Z" fill="black"/>
<path d="M152.76 407.21L151.2 415.72C151.165 415.927 151.175 416.139 151.231 416.341C151.287 416.543 151.387 416.731 151.523 416.89C151.66 417.049 151.83 417.177 152.021 417.263C152.212 417.349 152.42 417.393 152.63 417.39C155.33 417.39 156.63 416.96 161.32 416.89C166.84 416.8 171.45 417.49 177.92 417.39C178.635 417.453 179.348 417.246 179.918 416.81C180.488 416.374 180.874 415.74 180.999 415.033C181.125 414.326 180.981 413.598 180.596 412.992C180.211 412.386 179.613 411.946 178.92 411.76C172.62 410.05 169.87 406.82 166.92 404.93C166.3 401.87 167.81 393.45 167.81 393.45L152.73 394.45C153.001 398.698 153.011 402.96 152.76 407.21Z" fill="#003366"/>
<path d="M82.8801 407.69L86.5301 401.1C88.2901 396.94 90.9001 389 90.9001 389L104.46 392.53C104.46 392.53 100.72 399.32 99.8701 402.53C101.95 404.95 104.75 410.39 110.59 411.71C113.33 412.33 113.13 417.11 109.5 417.43C103.5 417.94 96.4401 413.31 91.4201 412.23C87.1301 411.3 86.5101 411.59 84.0701 411.02C83.7239 410.946 83.4023 410.784 83.136 410.551C82.8696 410.317 82.6672 410.02 82.5481 409.686C82.4289 409.353 82.3968 408.994 82.455 408.645C82.5131 408.296 82.6594 407.967 82.8801 407.69Z" fill="#003366"/>
<path d="M168.73 397.6L151.93 397.87C151.595 397.875 151.27 397.756 151.018 397.537C150.765 397.317 150.602 397.012 150.56 396.68L149.83 391.13C149.806 390.942 149.822 390.751 149.877 390.569C149.931 390.387 150.023 390.219 150.146 390.075C150.27 389.931 150.422 389.814 150.593 389.732C150.764 389.651 150.95 389.605 151.14 389.6L169.43 389.03C169.627 389.024 169.824 389.061 170.005 389.138C170.187 389.216 170.349 389.332 170.482 389.478C170.614 389.625 170.713 389.798 170.771 389.987C170.83 390.175 170.846 390.374 170.82 390.57L170.06 396.42C170.017 396.744 169.859 397.041 169.615 397.257C169.37 397.474 169.056 397.596 168.73 397.6Z" fill="#263238"/>
<path opacity="0.1" d="M168.73 397.6L151.93 397.87C151.595 397.875 151.27 397.756 151.018 397.537C150.765 397.317 150.602 397.012 150.56 396.68L149.83 391.13C149.806 390.942 149.822 390.751 149.877 390.569C149.931 390.387 150.023 390.219 150.146 390.075C150.27 389.931 150.422 389.814 150.593 389.732C150.764 389.651 150.95 389.605 151.14 389.6L169.43 389.03C169.627 389.024 169.824 389.061 170.005 389.138C170.187 389.216 170.349 389.332 170.482 389.478C170.614 389.625 170.713 389.798 170.771 389.987C170.83 390.175 170.846 390.374 170.82 390.57L170.06 396.42C170.017 396.744 169.859 397.041 169.615 397.257C169.37 397.474 169.056 397.596 168.73 397.6Z" fill="white"/>
<path d="M114.3 291.44C120.61 248.59 119.06 215.2 128.3 195.16L164.23 199.59C164.23 199.59 146.44 266.27 138.31 294.59C130.18 322.91 106.07 392.49 106.07 392.49L88.7305 388.66C88.7305 388.66 103.51 324.6 114.3 291.44Z" fill="#263238"/>
<path d="M105.27 395.57L88.8503 392C88.5168 391.918 88.2272 391.712 88.0412 391.424C87.8551 391.136 87.7868 390.787 87.8503 390.45L88.8503 385C88.8851 384.819 88.9551 384.647 89.0563 384.494C89.1576 384.34 89.288 384.208 89.4403 384.105C89.5926 384.002 89.7638 383.93 89.9439 383.893C90.1241 383.856 90.3097 383.855 90.4903 383.89L108.49 387.51C108.689 387.549 108.877 387.634 109.038 387.757C109.199 387.88 109.33 388.038 109.421 388.219C109.512 388.401 109.56 388.601 109.561 388.803C109.563 389.006 109.518 389.207 109.43 389.39L106.88 394.8C106.743 395.095 106.508 395.334 106.214 395.474C105.92 395.615 105.586 395.649 105.27 395.57Z" fill="#263238"/>
<path opacity="0.1" d="M105.27 395.57L88.8503 392C88.5168 391.918 88.2272 391.712 88.0412 391.424C87.8551 391.136 87.7868 390.787 87.8503 390.45L88.8503 385C88.8851 384.819 88.9551 384.647 89.0563 384.494C89.1576 384.34 89.288 384.208 89.4403 384.105C89.5926 384.002 89.7638 383.93 89.9439 383.893C90.1241 383.856 90.3097 383.855 90.4903 383.89L108.49 387.51C108.689 387.549 108.877 387.634 109.038 387.757C109.199 387.88 109.33 388.038 109.421 388.219C109.512 388.401 109.56 388.601 109.561 388.803C109.563 389.006 109.518 389.207 109.43 389.39L106.88 394.8C106.743 395.095 106.508 395.334 106.214 395.474C105.92 395.615 105.586 395.649 105.27 395.57Z" fill="white"/>
<path d="M193.61 148.05C194.41 154.05 195.19 160.2 196.07 166.22C196.49 169.22 196.99 172.22 197.48 175.22C197.97 178.22 198.58 181.09 199.26 183.77C199.43 184.43 199.61 185.06 199.8 185.67L200.08 186.51L200.41 187.39C200.89 188.56 201.46 189.77 202.1 190.98C202.74 192.19 203.45 193.4 204.22 194.61C204.99 195.82 205.79 197.03 206.64 198.22C210.153 203.08 213.918 207.753 217.92 212.22L218.01 212.32C218.553 212.946 218.854 213.747 218.857 214.576C218.86 215.405 218.565 216.207 218.026 216.837C217.486 217.467 216.739 217.883 215.919 218.008C215.1 218.133 214.262 217.96 213.56 217.52C210.814 215.76 208.179 213.833 205.67 211.75C203.134 209.671 200.72 207.447 198.44 205.09C196.068 202.659 193.901 200.037 191.96 197.25C190.933 195.776 190.004 194.236 189.18 192.64L188.56 191.39L188 190C187.65 189.13 187.34 188.29 187 187.47C185.87 184.18 185.09 181.01 184.34 177.86C183.59 174.71 183 171.56 182.42 168.43C181.31 162.14 180.42 155.94 179.8 149.56C179.593 147.731 180.121 145.895 181.268 144.456C182.415 143.017 184.086 142.092 185.915 141.885C187.744 141.678 189.579 142.206 191.019 143.353C192.458 144.5 193.383 146.171 193.59 148L193.61 148.05Z" fill="#FF8B7B"/>
<path d="M185.68 131.94C194.68 139.85 197 158.67 197 158.67C193.25 163.92 182.17 166.67 174.73 167.36C174.73 167.36 172.73 163.31 170.57 151.57C168.26 138.79 177.28 124.59 185.68 131.94Z" fill="#003366"/>
<path d="M149 122.83C159.059 123.546 169.02 125.278 178.73 128C189.17 131 189.95 141.15 189.33 152C188.41 168.32 182.05 177.42 179.65 216.42C173.01 219.87 142.74 218.83 123.54 206.92C126.15 191.68 134.89 166.04 136.41 134.02C136.485 132.453 136.872 130.916 137.549 129.501C138.225 128.085 139.178 126.819 140.351 125.776C141.524 124.734 142.893 123.936 144.378 123.43C145.863 122.925 147.435 122.72 149 122.83Z" fill="#003366"/>
<path d="M171.94 138.51C170.27 139.01 166.66 138.04 166.16 135.98C161.16 136.04 157.16 137.34 155.97 138.34C153.24 133.82 154.11 124.62 154.91 123.15C155.71 121.68 172.97 124.88 176.76 126.51C178.164 127.058 179.362 128.03 180.19 129.29C180.76 130.09 183.38 135.7 180.69 139.84C179.434 138.781 178.115 137.799 176.74 136.9C176.74 136.9 176.43 139.4 171.94 138.51Z" fill="#003366"/>
<path opacity="0.8" d="M171.94 138.51C170.27 139.01 166.66 138.04 166.16 135.98C161.16 136.04 157.16 137.34 155.97 138.34C153.24 133.82 154.11 124.62 154.91 123.15C155.71 121.68 172.97 124.88 176.76 126.51C178.164 127.058 179.362 128.03 180.19 129.29C180.76 130.09 183.38 135.7 180.69 139.84C179.434 138.781 178.115 137.799 176.74 136.9C176.74 136.9 176.43 139.4 171.94 138.51Z" fill="white"/>
<path d="M165.05 103.9C163.7 111.21 160.05 120.83 157.05 124.48C159.67 128.41 163.11 132.97 169.67 135.17C170.4 135.42 171.61 140.57 172.11 141.26C173.259 139.783 173.954 138.004 174.11 136.14C180.01 136.51 179.74 131.49 178.39 128.48C171.14 125.24 172.29 122.16 175.18 117.33L165.05 103.9Z" fill="#FF8B7B"/>
<path opacity="0.2" d="M168.41 112.18C168.676 111.295 169.01 110.433 169.41 109.6L175.27 117.33C174.282 118.781 173.551 120.391 173.11 122.09C170.17 120.25 167.45 115.47 168.41 112.18Z" fill="black"/>
<path d="M170.64 90.05C166.25 98.43 162.91 104.51 166.11 110.48C173.11 123.56 179.51 121.84 186.33 114.93C192.47 108.72 198.63 96.07 192.62 88.14C191.295 86.3751 189.542 84.9768 187.526 84.0769C185.511 83.1769 183.299 82.805 181.1 82.9961C178.901 83.1872 176.787 83.935 174.957 85.1691C173.127 86.4032 171.642 88.0829 170.64 90.05Z" fill="#FF8B7B"/>
<path d="M167.2 95.4396C173.09 97.7196 177.14 91.1096 176.37 88.7196C179.24 92.3296 188.48 94.2796 191.37 93.3896C192.13 99.9296 198.43 103.04 201.98 103.39C200.87 102.81 198.87 100.96 199.09 99.6896C205.26 98.8096 207.75 90.6296 200.98 88.3696C194.21 86.1096 193.76 81.9996 189.92 77.6096C185.37 72.3896 174.25 72.8296 175.23 77.9396C171.09 74.6096 163.53 78.3696 165.76 82.9396C157.07 85.4796 162.64 97.8196 164.48 99.0396C166.32 100.26 167.2 95.4396 167.2 95.4396Z" fill="#263238"/>
<path d="M198.271 99.9997C198.869 100.464 199.573 100.773 200.32 100.899C201.067 101.025 201.833 100.963 202.551 100.72C201.568 100.468 200.681 99.9326 200.001 99.1797C200.001 99.1797 198.271 99.2797 198.271 99.9997Z" fill="#263238"/>
<path d="M176 80.3899C174.6 78.3299 175.44 72.3899 177.05 71.1099C172.39 71.3799 171.7 77.0599 176 80.3899Z" fill="#263238"/>
<path opacity="0.2" d="M180.301 101C179.512 99.7437 178.256 98.8518 176.811 98.52C177.8 99.5673 178.986 100.41 180.301 101Z" fill="black"/>
<path opacity="0.2" d="M179.65 101.74C179.186 101.26 178.622 100.888 177.998 100.649C177.374 100.411 176.706 100.312 176.04 100.36C177.129 101.076 178.361 101.547 179.65 101.74Z" fill="black"/>
<path opacity="0.2" d="M175 106.19C174 105.71 172.85 105.63 172.41 107.55C172.722 107.154 173.114 106.828 173.56 106.594C174.007 106.36 174.497 106.222 175 106.19Z" fill="black"/>
<path d="M184.33 110.06C185.59 110.91 187.97 113.99 186.91 116.69C184.19 116.69 176.04 112.28 174.13 108.88C174.62 106.38 180.94 107.76 184.33 110.06Z" fill="#263238"/>
<path d="M187.051 103.41C187.051 103.41 185.861 108.01 186.171 110.86C184.321 111.1 182.771 109.28 182.771 109.28L187.051 103.41Z" fill="#FF5652"/>
<path d="M181.22 101.81C180.9 102.51 181.01 103.25 181.47 103.45C181.93 103.65 182.56 103.26 182.89 102.56C183.22 101.86 183.1 101.13 182.64 100.92C182.18 100.71 181.55 101.12 181.22 101.81Z" fill="#263238"/>
<path d="M189.6 105.6C189.28 106.29 189.39 107.03 189.85 107.23C190.31 107.43 190.94 107.04 191.26 106.34C191.58 105.64 191.47 104.91 191.01 104.7C190.55 104.49 189.92 104.9 189.6 105.6Z" fill="#263238"/>
<path opacity="0.5" d="M185.44 103C184.37 105.53 182.04 107 180.23 106.24C178.42 105.48 177.82 102.84 178.89 100.3" fill="#003366"/>
<path opacity="0.5" d="M194.35 107C193.28 109.54 190.95 111 189.14 110.24C187.33 109.48 186.73 106.84 187.8 104.3" fill="#003366"/>
<path d="M190.14 110.7C189.766 110.702 189.395 110.628 189.05 110.48C188.665 110.317 188.317 110.076 188.028 109.773C187.74 109.471 187.516 109.112 187.37 108.72C186.847 107.248 186.919 105.63 187.57 104.21C187.8 103.84 187.82 103.56 187.65 103.36C187.362 103.158 187.027 103.033 186.676 102.998C186.326 102.963 185.973 103.019 185.65 103.16C184.51 105.76 182.07 107.23 180.16 106.44C179.777 106.274 179.431 106.032 179.142 105.73C178.854 105.428 178.629 105.071 178.48 104.68C177.982 103.279 178.021 101.743 178.59 100.37L168.11 94.0499C168.053 94.0146 168.011 93.9584 167.995 93.8931C167.978 93.8278 167.987 93.7585 168.02 93.6999C168.057 93.6467 168.112 93.6091 168.175 93.5943C168.238 93.5795 168.304 93.5887 168.36 93.6199L179 100.06C179.053 100.09 179.093 100.137 179.113 100.194C179.134 100.251 179.133 100.314 179.11 100.37C178.517 101.667 178.445 103.142 178.91 104.49C179.035 104.819 179.224 105.121 179.466 105.376C179.708 105.632 179.998 105.837 180.32 105.98C182 106.67 184.19 105.28 185.2 102.87C185.211 102.84 185.228 102.812 185.25 102.79C185.273 102.767 185.3 102.75 185.33 102.74C185.755 102.53 186.231 102.443 186.702 102.489C187.174 102.535 187.624 102.712 188 103C188.162 103.199 188.25 103.448 188.25 103.705C188.25 103.962 188.162 104.21 188 104.41C187.422 105.701 187.358 107.163 187.82 108.5C187.943 108.83 188.131 109.133 188.373 109.389C188.616 109.645 188.907 109.849 189.23 109.99C190.91 110.68 193.1 109.29 194.11 106.88C194.137 106.819 194.186 106.771 194.248 106.747C194.31 106.722 194.379 106.723 194.44 106.75C194.501 106.776 194.549 106.826 194.574 106.888C194.598 106.95 194.597 107.019 194.57 107.08C193.66 109.28 191.83 110.7 190.14 110.7Z" fill="white"/>
<path d="M180.6 96.19C180.54 96.1419 180.492 96.0802 180.46 96.01C180.413 95.8986 180.412 95.7731 180.457 95.6608C180.502 95.5485 180.589 95.4584 180.7 95.41C181.355 95.1101 182.072 94.9701 182.792 95.0014C183.511 95.0327 184.213 95.2344 184.84 95.59C184.938 95.6588 185.005 95.763 185.028 95.8807C185.05 95.9983 185.026 96.1201 184.96 96.22C184.893 96.3174 184.79 96.3846 184.674 96.4071C184.558 96.4295 184.438 96.4054 184.34 96.34C183.838 96.07 183.281 95.9204 182.712 95.903C182.142 95.8857 181.577 96.001 181.06 96.24C180.985 96.2721 180.904 96.2843 180.823 96.2756C180.743 96.2668 180.666 96.2373 180.6 96.19Z" fill="#263238"/>
<path d="M194.491 102.8C194.42 102.775 194.357 102.733 194.308 102.677C194.259 102.621 194.225 102.553 194.211 102.48C194.1 101.928 193.862 101.409 193.515 100.966C193.167 100.523 192.72 100.168 192.211 99.9299C192.105 99.8835 192.021 99.7982 191.976 99.6917C191.932 99.5852 191.93 99.4656 191.971 99.3577C192.012 99.2498 192.093 99.1618 192.197 99.1119C192.301 99.0621 192.421 99.0542 192.531 99.0899C193.186 99.3734 193.763 99.8103 194.214 100.364C194.664 100.917 194.975 101.571 195.121 102.27C195.134 102.328 195.136 102.388 195.126 102.446C195.116 102.504 195.094 102.56 195.063 102.611C195.031 102.661 194.99 102.704 194.942 102.738C194.893 102.773 194.838 102.797 194.781 102.81C194.686 102.844 194.582 102.84 194.491 102.8Z" fill="#263238"/>
<path d="M216.591 211.29L222.591 214.14C224.769 215.175 226.739 216.602 228.401 218.35L229.841 219.87C230.571 220.64 230.251 222.13 229.201 222.97L225.301 226.08C225.036 226.324 224.707 226.488 224.353 226.552C223.999 226.615 223.634 226.577 223.301 226.44L219.561 224.52C219.561 224.52 211.561 221.78 212.751 215.33L216.591 211.29Z" fill="#FF8B7B"/>
<path d="M145 138.82L135.5 152.44C133.92 154.7 132.36 156.98 130.84 159.23C129.32 161.48 127.84 163.77 126.63 165.87C126.3 166.41 126.1 166.87 125.82 167.34C125.664 167.629 125.53 167.93 125.42 168.24C125.18 168.989 125.062 169.773 125.07 170.56C125.148 172.737 125.588 174.886 126.37 176.92C128.241 181.75 130.653 186.352 133.56 190.64L133.68 190.83C134.129 191.521 134.316 192.35 134.207 193.168C134.098 193.985 133.699 194.736 133.084 195.285C132.469 195.834 131.677 196.144 130.853 196.159C130.028 196.175 129.226 195.895 128.59 195.37C126.252 193.439 124.087 191.308 122.12 189C120.078 186.651 118.278 184.101 116.75 181.39C115.012 178.379 113.846 175.074 113.31 171.64C113.01 169.628 113.044 167.58 113.41 165.58C113.606 164.517 113.904 163.475 114.3 162.47C114.62 161.69 114.96 160.83 115.3 160.13C116.64 157.22 118.07 154.71 119.53 152.18C120.99 149.65 122.53 147.18 124.05 144.8C127.15 139.98 130.32 135.3 133.77 130.7C134.859 129.244 136.477 128.275 138.275 128.001C140.072 127.728 141.905 128.171 143.378 129.237C144.852 130.302 145.847 131.904 146.151 133.696C146.454 135.489 146.041 137.329 145 138.82Z" fill="#FF8B7B"/>
<path d="M147.73 122.81C131.61 122.25 122.73 142.07 122.73 142.07C126.28 149.79 131.22 156.58 136.89 158C136.89 158 143.34 152.39 148.54 141.66C153 132.52 150.81 123.55 147.73 122.81Z" fill="#003366"/>
<path d="M127.5 190.85L133.3 190.34L135.59 193.81C137.484 196.655 138.734 199.881 139.25 203.26L139.35 203.91C139.408 204.331 139.377 204.759 139.259 205.167C139.142 205.576 138.941 205.955 138.67 206.281C138.398 206.608 138.061 206.874 137.68 207.063C137.3 207.252 136.885 207.36 136.46 207.38L132.41 207.7C131.63 207.766 130.85 207.567 130.197 207.135C129.543 206.703 129.055 206.064 128.81 205.32L127.47 200.89C127.47 200.89 123.65 193.27 127.5 190.85Z" fill="#FF8B7B"/>
<path d="M163.22 95.7498C162.721 97.9487 163.078 100.255 164.22 102.2C165.71 104.61 168.35 103.34 169.51 100.6C170.56 98.1298 171.05 93.9098 168.79 92.4798C166.53 91.0498 163.84 92.9298 163.22 95.7498Z" fill="#FF8B7B"/>
<path d="M334.79 104.16C324.1 118.88 334.92 135.79 324.92 133.44C327.47 143.91 340.92 144.34 343.74 141.78C342.783 143.758 341.325 145.451 339.51 146.69C339.51 146.69 361.79 149.39 366.51 136.93C368.51 139.57 376.02 140.07 378.57 137.61C376.43 136.83 370.71 129.73 371.57 118.07C372.12 110.31 372.1 97.42 363.37 100C359.14 89.84 341.77 94.55 334.79 104.16Z" fill="#263238"/>
<path d="M351.85 164.06C351.3 167.74 350.67 171.39 350.01 175.06C349.35 178.73 348.66 182.36 347.92 186C347.18 189.64 346.42 193.29 345.6 196.93C344.78 200.57 344 204.16 342.88 208L343.04 207C342.77 208.954 342.297 210.874 341.63 212.73C341.03 214.42 340.37 215.98 339.68 217.5C338.319 220.455 336.807 223.339 335.15 226.14C333.53 228.9 331.83 231.57 330.05 234.14C328.27 236.71 326.43 239.29 324.41 241.79C323.851 242.485 323.06 242.954 322.183 243.111C321.305 243.267 320.4 243.101 319.636 242.643C318.871 242.184 318.299 241.464 318.024 240.617C317.749 239.769 317.79 238.85 318.14 238.03L321.71 229.64C322.89 226.84 324.06 224.05 325.14 221.27C326.22 218.49 327.26 215.71 328.14 213.01C328.57 211.67 328.96 210.33 329.24 209.06C329.513 207.979 329.68 206.873 329.74 205.76C329.73 205.67 329.73 205.58 329.74 205.49L329.88 204.77C330.53 201.46 331.1 197.77 331.71 194.19L333.47 183.31C334.05 179.68 334.67 176.04 335.28 172.41C335.89 168.78 336.54 165.14 337.28 161.53C337.443 160.574 337.793 159.661 338.31 158.841C338.827 158.02 339.5 157.31 340.291 156.75C341.082 156.19 341.976 155.792 342.921 155.577C343.866 155.363 344.844 155.336 345.8 155.5C346.755 155.663 347.669 156.013 348.489 156.53C349.309 157.047 350.019 157.72 350.579 158.511C351.139 159.302 351.538 160.196 351.752 161.141C351.967 162.086 351.993 163.064 351.83 164.02L351.85 164.06Z" fill="#7F3E3B"/>
<path d="M318.15 238.45L315.24 241.91C314.278 243.056 313.637 244.436 313.38 245.91L313.11 247.46C312.98 248.195 313.108 248.951 313.473 249.602C313.837 250.253 314.416 250.758 315.11 251.03L318.74 252.45C319.534 252.756 320.416 252.738 321.196 252.399C321.976 252.061 322.592 251.429 322.91 250.64L323.55 249.03C323.55 249.03 326.77 243.17 326.01 238.03L324.61 237.59C323.54 237.223 322.4 237.109 321.279 237.258C320.157 237.407 319.086 237.815 318.15 238.45Z" fill="#7F3E3B"/>
<path d="M339.16 155.36C334.62 159.36 330.73 170.71 330.73 170.71C330.73 170.71 342.59 183.23 352.14 186.15C357.37 183.72 354.85 167.82 354.85 167.82L339.16 155.36Z" fill="#263238"/>
<g opacity="0.4">
<path d="M336.44 171.66C336.686 171.659 336.931 171.632 337.17 171.58C337.589 171.498 337.985 171.326 338.331 171.076C338.676 170.826 338.963 170.503 339.17 170.13C339.384 169.719 339.507 169.268 339.533 168.806C339.559 168.344 339.486 167.882 339.32 167.45C339 166.559 338.373 165.811 337.553 165.339C336.733 164.867 335.772 164.7 334.84 164.87C334.422 164.949 334.026 165.119 333.68 165.368C333.335 165.617 333.048 165.938 332.84 166.31C332.627 166.721 332.504 167.172 332.478 167.634C332.452 168.096 332.524 168.558 332.69 168.99C332.98 169.757 333.491 170.42 334.159 170.896C334.827 171.371 335.621 171.637 336.44 171.66ZM333.32 166.57C333.485 166.271 333.713 166.01 333.987 165.807C334.261 165.603 334.576 165.461 334.91 165.39C335.118 165.35 335.329 165.33 335.54 165.33C336.248 165.348 336.934 165.578 337.51 165.989C338.086 166.401 338.525 166.976 338.77 167.64C338.915 167.997 338.98 168.382 338.961 168.767C338.942 169.152 338.839 169.528 338.66 169.87C338.494 170.169 338.264 170.43 337.988 170.633C337.712 170.837 337.396 170.979 337.06 171.05C336.257 171.186 335.431 171.037 334.726 170.628C334.021 170.218 333.481 169.575 333.2 168.81C333.06 168.449 332.998 168.063 333.019 167.677C333.039 167.291 333.142 166.913 333.32 166.57Z" fill="white"/>
<path d="M347.21 162.65C347.413 162.601 347.622 162.578 347.83 162.58C347.99 162.57 348.151 162.57 348.31 162.58L347.6 162.02C347.429 162.025 347.258 162.045 347.09 162.08C346.671 162.161 346.275 162.333 345.93 162.583C345.584 162.834 345.298 163.157 345.09 163.53C344.877 163.941 344.754 164.392 344.728 164.854C344.702 165.316 344.774 165.778 344.94 166.21C345.23 166.976 345.742 167.638 346.41 168.112C347.078 168.586 347.872 168.85 348.69 168.87C348.936 168.873 349.181 168.846 349.42 168.79C349.839 168.712 350.236 168.543 350.582 168.294C350.927 168.045 351.214 167.723 351.42 167.35C351.742 166.736 351.851 166.033 351.73 165.35L351 164.77L351.06 164.9C351.205 165.259 351.27 165.645 351.251 166.032C351.232 166.419 351.129 166.797 350.95 167.14C350.785 167.439 350.555 167.699 350.279 167.901C350.003 168.103 349.686 168.243 349.35 168.31C348.547 168.448 347.72 168.3 347.014 167.89C346.309 167.481 345.769 166.837 345.49 166.07C345.35 165.711 345.287 165.327 345.308 164.942C345.329 164.557 345.432 164.181 345.61 163.84C345.775 163.538 346.004 163.275 346.28 163.069C346.556 162.864 346.874 162.721 347.21 162.65Z" fill="white"/>
<path d="M339.76 178.64C339.963 178.591 340.171 178.568 340.38 178.57C341.087 178.591 341.772 178.821 342.347 179.233C342.922 179.644 343.362 180.218 343.61 180.88C343.724 181.201 343.785 181.539 343.79 181.88L344.32 182.23C344.362 181.718 344.294 181.203 344.12 180.72C343.801 179.828 343.176 179.077 342.355 178.603C341.535 178.129 340.573 177.961 339.64 178.13C339.435 178.18 339.234 178.247 339.04 178.33L339.54 178.73L339.76 178.64Z" fill="white"/>
<path d="M351.93 175.37C351.512 175.449 351.116 175.619 350.77 175.868C350.425 176.117 350.138 176.438 349.93 176.81C349.717 177.221 349.594 177.673 349.57 178.135C349.546 178.597 349.621 179.059 349.79 179.49C350.078 180.259 350.588 180.924 351.256 181.399C351.925 181.875 352.72 182.14 353.54 182.16C353.786 182.158 354.03 182.131 354.27 182.08C354.458 182.035 354.642 181.975 354.82 181.9C354.88 181.67 354.93 181.43 354.97 181.2C354.721 181.367 354.443 181.485 354.15 181.55C353.348 181.69 352.521 181.542 351.817 181.132C351.113 180.722 350.576 180.077 350.3 179.31C350.156 178.951 350.091 178.565 350.11 178.178C350.129 177.791 350.231 177.413 350.41 177.07C350.576 176.771 350.805 176.511 351.082 176.309C351.358 176.107 351.675 175.967 352.01 175.9C352.213 175.852 352.422 175.828 352.63 175.83C353.171 175.844 353.701 175.981 354.18 176.233C354.658 176.484 355.073 176.843 355.39 177.28C355.39 177.02 355.39 176.76 355.39 176.5C354.95 176.043 354.404 175.701 353.801 175.504C353.198 175.307 352.556 175.261 351.93 175.37Z" fill="white"/>
</g>
<path d="M369.72 297.8C386.29 244.13 390.02 214.32 390.02 214.32L350.46 212.18C350.46 212.18 344.11 266.18 341.34 299.27C338.34 319 334.84 352.53 332.62 375.05C339.238 375.157 345.85 374.611 352.36 373.42C359.58 354.18 368.11 326.15 369.72 297.8Z" fill="#003366"/>
<path d="M343.16 399.07C343.16 399.07 347 388.72 351 373.28C346.12 375.01 340.3 370.91 334.25 371.61C333.884 381.327 332.923 391.011 331.37 400.61C333.18 401.54 340.05 400.42 343.16 399.07Z" fill="#7F3E3B"/>
<path d="M315.86 413.44C327.12 409.36 330.49 409.39 330.13 398.74C332.65 397.57 345.25 397.07 345.25 397.07C342.78 407.86 343.4 406.76 344.04 409.4C344.84 412.72 346.73 417.45 342.26 417.45C339.54 417.45 338.54 416.91 335.15 416.94C331.2 416.94 325.02 417.45 317.15 417.45C312.89 417.45 313.66 414.24 315.86 413.44Z" fill="#263238"/>
<path d="M332.28 370C332.12 371.88 331.79 376.59 332.28 378.3C332.305 378.4 332.358 378.49 332.432 378.561C332.506 378.632 332.6 378.68 332.7 378.7C338.699 379.969 344.909 379.843 350.85 378.33C351.043 378.271 351.209 378.147 351.32 377.98C352.76 375.83 354.32 371.16 354.99 369.2C355.031 369.105 355.045 369.001 355.032 368.899C355.018 368.797 354.978 368.7 354.915 368.618C354.852 368.537 354.768 368.474 354.672 368.435C354.576 368.397 354.472 368.385 354.37 368.4C347.319 369.083 340.234 369.357 333.15 369.22C332.937 369.227 332.733 369.309 332.574 369.452C332.415 369.595 332.311 369.789 332.28 370Z" fill="#003366"/>
<path opacity="0.2" d="M332.28 370C332.12 371.88 331.79 376.59 332.28 378.3C332.305 378.4 332.358 378.49 332.432 378.561C332.506 378.632 332.6 378.68 332.7 378.7C338.699 379.969 344.909 379.843 350.85 378.33C351.043 378.271 351.209 378.147 351.32 377.98C352.76 375.83 354.32 371.16 354.99 369.2C355.031 369.105 355.045 369.001 355.032 368.899C355.018 368.797 354.978 368.7 354.915 368.618C354.852 368.537 354.768 368.474 354.672 368.435C354.576 368.397 354.472 368.385 354.37 368.4C347.319 369.083 340.234 369.357 333.15 369.22C332.937 369.227 332.733 369.309 332.574 369.452C332.415 369.595 332.311 369.789 332.28 370Z" fill="black"/>
<path opacity="0.2" d="M369.25 240.82C364.99 258.02 367.51 281.51 371.1 293.29C373.413 285.67 375.463 278.563 377.25 271.97C377.31 271.3 377.36 270.63 377.41 269.97C374.09 258.64 370.24 249.19 369.25 240.82Z" fill="black"/>
<path d="M402.75 297.8C404.04 229.8 394.01 211.15 394.01 211.15L358.68 212.15C358.68 212.15 369.31 265.73 376.5 299.62C380.87 319.11 383.72 352.5 388.02 375.02C394.482 375.143 400.94 374.597 407.29 373.39C408.94 354.18 409.35 326.15 402.75 297.8Z" fill="#003366"/>
<path d="M405.53 399.07C406.092 390.485 406.216 381.877 405.9 373.28C401.52 375.01 394.52 370.91 388.67 371.61C391.082 381.158 392.922 390.842 394.18 400.61C396.26 401.54 402.8 400.42 405.53 399.07Z" fill="#7F3E3B"/>
<path d="M382 413C392.39 408.91 395 409.4 392.41 398.75C394.68 397.58 407.17 397.08 407.17 397.08C407.11 401.491 407.768 405.881 409.12 410.08C410.12 413.6 411.47 417.45 407.29 417.45C404.58 417.45 403.51 416.91 400.13 416.94C396.13 416.94 391.28 417.45 383.44 417.45C379.12 417.45 379.94 413.79 382 413Z" fill="#263238"/>
<path d="M386.22 370C386.61 371.88 387.63 376.59 388.62 378.3C388.678 378.4 388.755 378.488 388.848 378.556C388.941 378.625 389.047 378.674 389.16 378.7C396.66 380.27 404.16 379.41 407.16 378.33C407.245 378.305 407.323 378.26 407.387 378.2C407.451 378.139 407.5 378.064 407.53 377.98C408.34 375.83 408.59 371.16 408.66 369.2C408.662 369.089 408.64 368.979 408.597 368.878C408.554 368.776 408.489 368.684 408.408 368.609C408.327 368.533 408.231 368.476 408.126 368.44C408.021 368.404 407.91 368.39 407.8 368.4C400.823 369.091 393.81 369.365 386.8 369.22C386.708 369.226 386.618 369.253 386.537 369.297C386.456 369.341 386.386 369.403 386.331 369.477C386.275 369.551 386.237 369.636 386.218 369.726C386.199 369.817 386.2 369.91 386.22 370Z" fill="#003366"/>
<path opacity="0.2" d="M386.22 370C386.61 371.88 387.63 376.59 388.62 378.3C388.678 378.4 388.755 378.488 388.848 378.556C388.941 378.625 389.047 378.674 389.16 378.7C396.66 380.27 404.16 379.41 407.16 378.33C407.245 378.305 407.323 378.26 407.387 378.2C407.451 378.139 407.5 378.064 407.53 377.98C408.34 375.83 408.59 371.16 408.66 369.2C408.662 369.089 408.64 368.979 408.597 368.878C408.554 368.776 408.489 368.684 408.408 368.609C408.327 368.533 408.231 368.476 408.126 368.44C408.021 368.404 407.91 368.39 407.8 368.4C400.823 369.091 393.81 369.365 386.8 369.22C386.708 369.226 386.618 369.253 386.537 369.297C386.456 369.341 386.386 369.403 386.331 369.477C386.275 369.551 386.237 369.636 386.218 369.726C386.199 369.817 386.2 369.91 386.22 370Z" fill="black"/>
<path d="M335.31 169.64C337.7 178.77 332.91 186.54 341.86 189.94C341.18 197.14 347.43 218.49 348.86 222.75C353.86 224.83 375.81 221.23 394.98 211.49C393.87 203.44 385.44 181.76 384.54 155.11C384.496 153.649 384.145 152.213 383.51 150.896C382.874 149.579 381.969 148.411 380.852 147.468C379.735 146.524 378.431 145.827 377.027 145.421C375.622 145.014 374.148 144.909 372.7 145.11C371.06 145.34 369.34 145.62 367.58 145.96C361.428 147.004 355.359 148.488 349.42 150.4C347.5 151.06 345.54 151.8 343.67 152.54C340.419 153.866 337.77 156.342 336.228 159.496C334.687 162.649 334.36 166.261 335.31 169.64Z" fill="#263238"/>
<g opacity="0.4">
<path d="M343.74 154.42C343.562 154.712 343.322 154.962 343.037 155.152C342.752 155.342 342.429 155.468 342.09 155.52C341.264 155.648 340.42 155.447 339.74 154.96C339.6 155.08 339.45 155.19 339.32 155.32C339.979 155.821 340.782 156.098 341.61 156.11C341.801 156.108 341.992 156.091 342.18 156.06C342.591 155.992 342.983 155.836 343.328 155.603C343.673 155.37 343.964 155.066 344.18 154.71C344.397 154.341 344.536 153.932 344.591 153.507C344.646 153.083 344.615 152.652 344.5 152.24L343.99 152.44C344.082 152.77 344.107 153.115 344.064 153.455C344.021 153.795 343.911 154.123 343.74 154.42Z" fill="white"/>
<path d="M350.241 151.11C350.491 151.922 350.987 152.636 351.661 153.154C352.334 153.671 353.152 153.967 354.001 154C354.19 154.02 354.381 154.02 354.571 154C354.981 153.931 355.372 153.775 355.717 153.542C356.062 153.309 356.353 153.005 356.571 152.65C356.806 152.251 356.952 151.806 357 151.345C357.049 150.885 356.998 150.419 356.851 149.98C356.677 149.458 356.398 148.979 356.031 148.57L355.451 148.72C355.856 149.114 356.159 149.601 356.331 150.14C356.457 150.505 356.503 150.894 356.465 151.279C356.427 151.664 356.306 152.036 356.111 152.37C355.933 152.662 355.693 152.912 355.408 153.102C355.122 153.292 354.799 153.418 354.461 153.47C353.651 153.568 352.833 153.38 352.148 152.938C351.463 152.496 350.955 151.828 350.711 151.05C350.623 150.755 350.583 150.448 350.591 150.14L350.051 150.31C350.079 150.584 350.143 150.853 350.241 151.11Z" fill="white"/>
<path d="M362.621 147C362.417 147.651 362.417 148.349 362.621 149C362.881 149.807 363.385 150.514 364.064 151.022C364.743 151.531 365.563 151.817 366.411 151.84C366.602 151.838 366.792 151.821 366.981 151.79C367.391 151.721 367.782 151.565 368.127 151.332C368.472 151.099 368.763 150.795 368.981 150.44C369.213 150.04 369.357 149.594 369.404 149.134C369.451 148.673 369.398 148.208 369.251 147.77C369.027 147.064 368.611 146.434 368.051 145.95L367.511 146.04H367.341C367.998 146.486 368.49 147.136 368.741 147.89C368.864 148.256 368.909 148.644 368.871 149.028C368.833 149.413 368.713 149.785 368.521 150.12C368.337 150.41 368.094 150.658 367.808 150.848C367.522 151.037 367.199 151.164 366.86 151.22C366.051 151.317 365.234 151.127 364.55 150.683C363.867 150.239 363.361 149.569 363.121 148.79C362.913 148.154 362.945 147.464 363.211 146.85L362.621 147Z" fill="white"/>
<path d="M375.001 145.09C374.883 145.657 374.91 146.246 375.081 146.8C375.339 147.607 375.841 148.315 376.518 148.826C377.195 149.336 378.013 149.624 378.861 149.65C379.052 149.648 379.242 149.631 379.431 149.6C379.841 149.531 380.232 149.375 380.577 149.142C380.922 148.909 381.213 148.605 381.431 148.25C381.431 148.25 381.431 148.16 381.481 148.13C381.351 147.99 381.211 147.87 381.071 147.74C381.071 147.81 381.011 147.89 380.961 147.97C380.781 148.261 380.541 148.509 380.256 148.697C379.971 148.885 379.648 149.009 379.311 149.06C378.502 149.162 377.683 148.974 376.999 148.532C376.315 148.089 375.809 147.419 375.571 146.64C375.419 146.161 375.394 145.651 375.501 145.16C375.335 145.128 375.168 145.104 375.001 145.09Z" fill="white"/>
<path d="M335.76 167.81C335.887 168.175 335.933 168.564 335.895 168.949C335.857 169.334 335.736 169.706 335.54 170.04C335.509 170.085 335.476 170.128 335.44 170.17C335.49 170.4 335.54 170.62 335.58 170.85C335.742 170.691 335.883 170.513 336 170.32C336.235 169.921 336.382 169.476 336.43 169.015C336.478 168.555 336.427 168.089 336.28 167.65C336.01 166.849 335.501 166.151 334.82 165.65C334.82 165.88 334.82 166.12 334.82 166.36C335.247 166.76 335.569 167.257 335.76 167.81Z" fill="white"/>
<path d="M346.391 169.52C346.801 169.451 347.192 169.295 347.537 169.062C347.882 168.829 348.173 168.525 348.391 168.17C348.626 167.771 348.771 167.325 348.818 166.865C348.865 166.404 348.811 165.938 348.661 165.5C348.384 164.594 347.796 163.815 346.999 163.302C346.203 162.789 345.25 162.576 344.311 162.7C343.9 162.769 343.509 162.925 343.164 163.158C342.819 163.391 342.528 163.695 342.311 164.05C342.076 164.449 341.93 164.894 341.882 165.355C341.834 165.815 341.884 166.281 342.031 166.72C342.289 167.529 342.793 168.238 343.472 168.748C344.151 169.259 344.971 169.546 345.821 169.57C346.012 169.568 346.202 169.551 346.391 169.52ZM342.551 166.52C342.425 166.156 342.38 165.769 342.418 165.386C342.456 165.003 342.576 164.632 342.771 164.3C342.949 164.007 343.189 163.757 343.474 163.567C343.759 163.377 344.082 163.252 344.421 163.2C344.584 163.185 344.748 163.185 344.911 163.2C345.641 163.223 346.347 163.472 346.931 163.912C347.515 164.353 347.948 164.963 348.171 165.66C348.294 166.026 348.339 166.414 348.301 166.799C348.263 167.183 348.144 167.555 347.951 167.89C347.767 168.18 347.525 168.428 347.238 168.618C346.952 168.807 346.629 168.934 346.291 168.99C345.481 169.087 344.664 168.897 343.98 168.453C343.297 168.009 342.791 167.339 342.551 166.56V166.52Z" fill="white"/>
<path d="M360.82 166C361.05 165.599 361.193 165.154 361.24 164.694C361.286 164.234 361.235 163.769 361.09 163.33C360.814 162.424 360.225 161.645 359.429 161.132C358.632 160.619 357.679 160.406 356.74 160.53C356.329 160.599 355.939 160.755 355.593 160.988C355.248 161.221 354.957 161.525 354.74 161.88C354.51 162.281 354.367 162.726 354.32 163.186C354.274 163.646 354.325 164.111 354.47 164.55C354.729 165.357 355.231 166.063 355.908 166.572C356.585 167.08 357.403 167.366 358.25 167.39C358.44 167.405 358.63 167.405 358.82 167.39C359.234 167.317 359.627 167.154 359.972 166.914C360.318 166.674 360.607 166.362 360.82 166ZM355 164.41C354.874 164.044 354.828 163.656 354.866 163.271C354.904 162.886 355.025 162.514 355.22 162.18C355.4 161.889 355.641 161.641 355.926 161.451C356.21 161.261 356.532 161.135 356.87 161.08C357.033 161.07 357.197 161.07 357.36 161.08C358.09 161.106 358.795 161.357 359.377 161.799C359.959 162.242 360.39 162.853 360.61 163.55C360.736 163.914 360.781 164.301 360.743 164.684C360.705 165.067 360.585 165.438 360.39 165.77C360.213 166.063 359.973 166.314 359.688 166.504C359.403 166.694 359.079 166.819 358.74 166.87C357.926 166.97 357.104 166.777 356.419 166.326C355.734 165.876 355.231 165.197 355 164.41Z" fill="white"/>
<path d="M369.15 158.4C368.74 158.469 368.349 158.625 368.004 158.858C367.659 159.091 367.368 159.395 367.15 159.75C366.919 160.151 366.776 160.596 366.73 161.056C366.683 161.516 366.734 161.981 366.88 162.42C367.14 163.226 367.643 163.931 368.319 164.44C368.996 164.948 369.814 165.235 370.66 165.26C370.85 165.28 371.041 165.28 371.23 165.26C371.641 165.192 372.033 165.037 372.378 164.804C372.723 164.571 373.014 164.266 373.23 163.91C373.467 163.511 373.614 163.066 373.663 162.606C373.711 162.145 373.659 161.679 373.51 161.24C373.242 160.324 372.655 159.535 371.855 159.014C371.055 158.493 370.096 158.275 369.15 158.4ZM372.76 163.58C372.582 163.872 372.342 164.122 372.057 164.312C371.772 164.502 371.449 164.628 371.11 164.68C370.302 164.778 369.485 164.589 368.802 164.147C368.119 163.705 367.612 163.037 367.37 162.26C367.242 161.895 367.195 161.507 367.231 161.122C367.267 160.737 367.386 160.364 367.58 160.03C367.76 159.737 368.002 159.487 368.289 159.297C368.576 159.107 368.9 158.982 369.24 158.93C369.4 158.915 369.56 158.915 369.72 158.93C370.451 158.953 371.157 159.202 371.741 159.642C372.324 160.083 372.757 160.693 372.98 161.39C373.101 161.75 373.143 162.131 373.105 162.509C373.067 162.886 372.95 163.251 372.76 163.58Z" fill="white"/>
<path d="M381.64 156.78C381.803 156.766 381.967 156.766 382.13 156.78C382.605 156.792 383.072 156.902 383.503 157.103C383.933 157.305 384.317 157.593 384.63 157.95V157.17C384.213 156.815 383.726 156.552 383.2 156.399C382.675 156.245 382.122 156.205 381.58 156.28C381.17 156.349 380.779 156.505 380.434 156.738C380.089 156.971 379.797 157.275 379.58 157.63C379.346 158.029 379.2 158.474 379.152 158.935C379.103 159.395 379.154 159.861 379.3 160.3C379.56 161.108 380.064 161.816 380.743 162.327C381.421 162.837 382.241 163.125 383.09 163.15C383.281 163.148 383.472 163.132 383.66 163.1C384.15 163.014 384.61 162.808 385 162.5C385 162.27 385 162.05 384.95 161.82C384.583 162.217 384.094 162.481 383.56 162.57C382.751 162.667 381.933 162.477 381.25 162.033C380.566 161.589 380.06 160.919 379.82 160.14C379.695 159.776 379.649 159.389 379.687 159.006C379.725 158.623 379.846 158.252 380.04 157.92C380.21 157.627 380.44 157.373 380.716 157.176C380.992 156.98 381.307 156.845 381.64 156.78Z" fill="white"/>
<path d="M338.181 185.14C338.592 185.069 338.983 184.91 339.328 184.676C339.673 184.441 339.963 184.136 340.181 183.78C340.416 183.381 340.562 182.935 340.608 182.475C340.655 182.014 340.601 181.548 340.451 181.11C340.173 180.206 339.583 179.429 338.787 178.918C337.99 178.407 337.039 178.195 336.101 178.32H336.051V178.88H336.191C336.354 178.865 336.518 178.865 336.681 178.88C337.412 178.904 338.117 179.155 338.699 179.598C339.281 180.04 339.712 180.652 339.931 181.35C340.056 181.714 340.102 182.1 340.066 182.483C340.029 182.866 339.912 183.236 339.721 183.57C339.54 183.863 339.299 184.113 339.012 184.303C338.725 184.493 338.401 184.618 338.061 184.67C337.518 184.759 336.961 184.696 336.451 184.49L336.631 185.11C336.939 185.2 337.259 185.248 337.581 185.25C337.784 185.23 337.984 185.193 338.181 185.14Z" fill="white"/>
<path d="M348.541 176.17C348.13 176.239 347.739 176.395 347.394 176.628C347.049 176.861 346.758 177.165 346.541 177.52C346.31 177.921 346.167 178.366 346.12 178.826C346.074 179.286 346.125 179.751 346.271 180.19C346.533 180.982 347.03 181.676 347.697 182.178C348.363 182.68 349.167 182.967 350.001 183C350.192 182.998 350.382 182.981 350.571 182.95C350.982 182.882 351.373 182.726 351.718 182.493C352.064 182.26 352.354 181.956 352.571 181.6C352.807 181.201 352.955 180.756 353.003 180.295C353.052 179.834 353 179.369 352.851 178.93C352.568 178.038 351.982 177.274 351.195 176.77C350.408 176.266 349.468 176.053 348.541 176.17ZM352.371 179.17C352.497 179.535 352.543 179.924 352.505 180.309C352.467 180.694 352.346 181.066 352.151 181.4C351.969 181.69 351.729 181.938 351.444 182.127C351.16 182.317 350.838 182.444 350.501 182.5C349.693 182.597 348.876 182.409 348.193 181.967C347.509 181.524 347.003 180.857 346.761 180.08C346.635 179.714 346.589 179.327 346.626 178.942C346.662 178.558 346.779 178.185 346.971 177.85C347.151 177.557 347.393 177.307 347.68 177.117C347.966 176.927 348.291 176.802 348.631 176.75C348.79 176.735 348.951 176.735 349.111 176.75C349.831 176.766 350.528 177.002 351.111 177.425C351.693 177.849 352.133 178.44 352.371 179.12V179.17Z" fill="white"/>
<path d="M363 180.83C363.411 180.761 363.802 180.605 364.147 180.372C364.492 180.139 364.783 179.835 365 179.48C365.234 179.08 365.381 178.636 365.429 178.175C365.477 177.715 365.426 177.249 365.28 176.81C364.994 175.908 364.401 175.135 363.605 174.624C362.809 174.113 361.859 173.895 360.92 174.01C360.51 174.079 360.119 174.235 359.774 174.468C359.429 174.701 359.138 175.005 358.92 175.36C358.685 175.759 358.539 176.204 358.493 176.665C358.446 177.126 358.5 177.592 358.65 178.03C358.907 178.838 359.409 179.547 360.086 180.057C360.763 180.568 361.582 180.855 362.43 180.88C362.621 180.878 362.812 180.861 363 180.83ZM359.16 177.83C359.034 177.464 358.989 177.076 359.027 176.691C359.065 176.306 359.185 175.934 359.38 175.6C359.563 175.31 359.805 175.062 360.092 174.874C360.378 174.686 360.702 174.562 361.04 174.51C361.198 174.478 361.359 174.462 361.52 174.46C362.252 174.485 362.958 174.736 363.542 175.178C364.125 175.62 364.558 176.232 364.78 176.93C364.907 177.295 364.952 177.684 364.915 178.069C364.877 178.454 364.756 178.826 364.56 179.16C364.379 179.449 364.138 179.695 363.853 179.883C363.569 180.071 363.247 180.196 362.91 180.25C362.106 180.354 361.29 180.173 360.605 179.738C359.919 179.304 359.408 178.642 359.16 177.87V177.83Z" fill="white"/>
<path d="M371.33 173.21C371.096 173.609 370.95 174.054 370.902 174.515C370.853 174.975 370.904 175.441 371.05 175.88C371.31 176.687 371.815 177.394 372.494 177.903C373.172 178.411 373.992 178.697 374.84 178.72C375.026 178.735 375.214 178.735 375.4 178.72C375.811 178.651 376.202 178.495 376.547 178.262C376.892 178.029 377.183 177.725 377.4 177.37C377.63 176.967 377.774 176.52 377.82 176.059C377.867 175.597 377.815 175.131 377.67 174.69C377.392 173.786 376.803 173.009 376.006 172.498C375.21 171.987 374.258 171.776 373.32 171.9C372.915 171.966 372.528 172.116 372.185 172.342C371.842 172.568 371.551 172.864 371.33 173.21ZM373.93 172.35C374.661 172.373 375.367 172.623 375.95 173.066C376.532 173.509 376.962 174.122 377.18 174.82C377.306 175.176 377.355 175.554 377.324 175.929C377.293 176.305 377.182 176.67 377 177C376.82 177.293 376.578 177.543 376.291 177.733C376.005 177.923 375.68 178.048 375.34 178.1C374.532 178.202 373.713 178.015 373.029 177.572C372.345 177.129 371.839 176.459 371.6 175.68C371.474 175.314 371.428 174.926 371.466 174.541C371.504 174.156 371.625 173.784 371.82 173.45C372.001 173.16 372.242 172.912 372.527 172.722C372.811 172.533 373.133 172.406 373.47 172.35C373.623 172.337 373.777 172.337 373.93 172.35Z" fill="white"/>
<path d="M386.68 176C386.056 175.878 385.477 175.591 385.002 175.169C384.527 174.747 384.174 174.205 383.98 173.6C383.854 173.234 383.808 172.846 383.846 172.461C383.884 172.076 384.005 171.704 384.2 171.37C384.375 171.083 384.609 170.838 384.886 170.65C385.164 170.462 385.479 170.335 385.81 170.28C385.81 170.1 385.76 169.92 385.74 169.74C385.33 169.81 384.939 169.967 384.595 170.199C384.25 170.432 383.958 170.736 383.74 171.09C383.509 171.491 383.366 171.936 383.319 172.396C383.273 172.856 383.324 173.321 383.47 173.76C383.709 174.489 384.146 175.137 384.732 175.631C385.319 176.126 386.031 176.447 386.79 176.56C386.75 176.34 386.71 176.16 386.68 176Z" fill="white"/>
<path d="M344.69 194.58C344.476 193.926 344.102 193.336 343.603 192.863C343.104 192.389 342.494 192.048 341.83 191.87C341.83 192.05 341.83 192.24 341.83 192.43C342.372 192.603 342.865 192.903 343.269 193.305C343.672 193.706 343.974 194.198 344.15 194.74C344.291 195.105 344.35 195.496 344.325 195.886C344.299 196.277 344.188 196.656 344 197C343.679 197.5 343.178 197.858 342.6 198L342.69 198.54C343.424 198.359 344.059 197.9 344.46 197.26C344.687 196.855 344.826 196.407 344.865 195.945C344.905 195.482 344.845 195.017 344.69 194.58Z" fill="white"/>
<path d="M354.79 196.44C355.2 196.371 355.591 196.215 355.936 195.982C356.281 195.749 356.572 195.445 356.79 195.09C357.021 194.689 357.164 194.244 357.21 193.784C357.257 193.324 357.206 192.859 357.06 192.42C356.782 191.516 356.192 190.739 355.396 190.228C354.599 189.717 353.648 189.505 352.71 189.63C352.299 189.699 351.908 189.855 351.563 190.088C351.218 190.321 350.927 190.625 350.71 190.98C350.473 191.378 350.326 191.823 350.277 192.284C350.229 192.745 350.281 193.211 350.43 193.65C350.69 194.457 351.194 195.164 351.873 195.673C352.552 196.181 353.372 196.467 354.22 196.49C354.411 196.494 354.602 196.478 354.79 196.44ZM351 193.49C350.873 193.124 350.828 192.736 350.866 192.351C350.904 191.966 351.024 191.594 351.22 191.26C351.401 190.97 351.642 190.722 351.926 190.532C352.211 190.343 352.532 190.216 352.87 190.16C353.033 190.145 353.197 190.145 353.36 190.16C354.091 190.183 354.797 190.432 355.38 190.873C355.964 191.313 356.397 191.923 356.62 192.62C356.744 192.986 356.788 193.374 356.75 193.759C356.712 194.143 356.593 194.515 356.4 194.85C356.219 195.143 355.978 195.393 355.691 195.583C355.404 195.773 355.08 195.898 354.74 195.95C353.926 196.047 353.105 195.854 352.42 195.404C351.736 194.954 351.232 194.276 351 193.49Z" fill="white"/>
<path d="M366.63 194.34C366.821 194.338 367.012 194.321 367.2 194.29C367.611 194.221 368.002 194.065 368.347 193.832C368.692 193.599 368.983 193.295 369.2 192.94C369.431 192.539 369.574 192.094 369.62 191.634C369.667 191.174 369.616 190.709 369.47 190.27C369.194 189.364 368.606 188.585 367.809 188.072C367.012 187.559 366.06 187.346 365.12 187.47C364.709 187.541 364.318 187.699 363.974 187.934C363.629 188.169 363.338 188.474 363.12 188.83C362.885 189.229 362.74 189.675 362.693 190.135C362.646 190.596 362.7 191.062 362.85 191.5C363.11 192.306 363.613 193.011 364.29 193.52C364.967 194.028 365.784 194.315 366.63 194.34ZM363.63 189.11C363.808 188.817 364.047 188.566 364.333 188.376C364.618 188.186 364.941 188.061 365.28 188.01C365.443 187.995 365.607 187.995 365.77 188.01C366.5 188.034 367.204 188.283 367.786 188.723C368.368 189.164 368.8 189.774 369.02 190.47C369.147 190.836 369.193 191.224 369.155 191.609C369.117 191.994 368.996 192.366 368.8 192.7C368.62 192.991 368.38 193.239 368.095 193.429C367.81 193.619 367.488 193.745 367.15 193.8C366.341 193.897 365.523 193.707 364.84 193.263C364.156 192.819 363.651 192.149 363.41 191.37C363.273 191.003 363.218 190.61 363.249 190.22C363.28 189.829 363.396 189.45 363.59 189.11H363.63Z" fill="white"/>
<path d="M381.63 190.79C381.864 190.39 382.011 189.946 382.059 189.485C382.107 189.025 382.056 188.559 381.91 188.12C381.634 187.212 381.044 186.431 380.245 185.918C379.446 185.406 378.491 185.193 377.55 185.32C377.14 185.389 376.749 185.545 376.404 185.778C376.059 186.011 375.768 186.315 375.55 186.67C375.318 187.07 375.173 187.515 375.127 187.976C375.08 188.436 375.133 188.901 375.28 189.34C375.538 190.147 376.04 190.855 376.717 191.366C377.394 191.876 378.213 192.164 379.06 192.19C379.251 192.188 379.442 192.171 379.63 192.14C380.041 192.071 380.432 191.915 380.777 191.682C381.122 191.449 381.413 191.145 381.63 190.79ZM379.52 191.6C378.711 191.7 377.892 191.513 377.206 191.07C376.521 190.628 376.013 189.959 375.77 189.18C375.655 188.82 375.616 188.441 375.656 188.066C375.696 187.69 375.813 187.327 376 187C376.183 186.71 376.425 186.462 376.712 186.274C376.998 186.086 377.322 185.962 377.66 185.91C377.818 185.878 377.979 185.862 378.14 185.86C378.872 185.885 379.578 186.136 380.162 186.578C380.745 187.02 381.178 187.632 381.4 188.33C381.527 188.695 381.573 189.084 381.535 189.469C381.497 189.854 381.376 190.226 381.18 190.56C380.994 190.842 380.749 191.08 380.463 191.259C380.176 191.439 379.855 191.555 379.52 191.6Z" fill="white"/>
<path d="M389.45 189.43C389.39 189.17 389.32 188.91 389.26 188.64C388.757 188.215 388.383 187.657 388.18 187.03C388.054 186.666 388.008 186.279 388.046 185.895C388.084 185.512 388.205 185.142 388.4 184.81L388.25 184.12C388.134 184.242 388.03 184.376 387.94 184.52C387.706 184.919 387.559 185.364 387.511 185.824C387.463 186.285 387.514 186.75 387.66 187.19C387.97 188.127 388.605 188.921 389.45 189.43Z" fill="white"/>
<path d="M346.59 212.06C347.001 211.991 347.392 211.835 347.737 211.602C348.082 211.369 348.373 211.065 348.59 210.71C348.82 210.309 348.963 209.864 349.01 209.404C349.056 208.944 349.005 208.479 348.86 208.04C348.584 207.134 347.995 206.355 347.199 205.842C346.402 205.329 345.449 205.116 344.51 205.24C344.351 205.273 344.194 205.316 344.04 205.37L344.16 205.9C344.302 205.845 344.45 205.805 344.6 205.78C344.763 205.765 344.927 205.765 345.09 205.78C345.82 205.804 346.524 206.053 347.106 206.494C347.688 206.934 348.119 207.544 348.34 208.24C348.466 208.606 348.512 208.994 348.474 209.379C348.436 209.764 348.315 210.136 348.12 210.47C347.94 210.761 347.699 211.009 347.414 211.199C347.13 211.389 346.808 211.515 346.47 211.57C346.172 211.615 345.868 211.615 345.57 211.57L345.72 212.12H345.99C346.191 212.117 346.392 212.096 346.59 212.06Z" fill="white"/>
<path d="M354.921 204.44C354.691 204.841 354.548 205.286 354.501 205.746C354.455 206.206 354.506 206.671 354.651 207.11C354.909 207.918 355.411 208.625 356.088 209.136C356.765 209.646 357.583 209.934 358.431 209.96C358.622 209.958 358.812 209.942 359.001 209.91C359.412 209.842 359.803 209.687 360.148 209.454C360.494 209.221 360.784 208.916 361.001 208.56C361.235 208.161 361.381 207.716 361.429 207.255C361.478 206.795 361.427 206.329 361.281 205.89C360.996 204.989 360.405 204.216 359.611 203.705C358.817 203.194 357.868 202.976 356.931 203.09C356.518 203.158 356.125 203.313 355.779 203.546C355.432 203.779 355.139 204.084 354.921 204.44ZM357.521 203.58C358.252 203.605 358.959 203.856 359.542 204.298C360.126 204.741 360.558 205.352 360.781 206.05C360.906 206.414 360.952 206.801 360.914 207.184C360.876 207.567 360.755 207.938 360.561 208.27C360.382 208.563 360.142 208.813 359.857 209.003C359.572 209.193 359.249 209.318 358.911 209.37C358.101 209.47 357.282 209.283 356.597 208.84C355.911 208.398 355.403 207.729 355.161 206.95C355.037 206.584 354.992 206.196 355.03 205.811C355.068 205.427 355.188 205.055 355.381 204.72C355.564 204.43 355.807 204.182 356.093 203.992C356.379 203.803 356.702 203.676 357.041 203.62C357.2 203.597 357.36 203.583 357.521 203.58Z" fill="white"/>
<path d="M370.84 207.8C371.031 207.803 371.222 207.786 371.41 207.75C371.821 207.681 372.212 207.525 372.557 207.292C372.902 207.059 373.193 206.755 373.41 206.4C373.645 206.001 373.791 205.556 373.84 205.095C373.888 204.635 373.837 204.169 373.69 203.73C373.403 202.829 372.81 202.057 372.014 201.547C371.218 201.038 370.268 200.823 369.33 200.94C368.919 201.009 368.529 201.165 368.184 201.398C367.838 201.631 367.547 201.935 367.33 202.29C367.095 202.689 366.949 203.134 366.9 203.594C366.852 204.055 366.903 204.521 367.05 204.96C367.313 205.766 367.818 206.471 368.496 206.979C369.174 207.487 369.993 207.774 370.84 207.8ZM367.84 202.57C368.019 202.278 368.26 202.029 368.544 201.839C368.829 201.649 369.152 201.523 369.49 201.47C369.653 201.455 369.817 201.455 369.98 201.47C370.711 201.493 371.417 201.742 372.001 202.182C372.584 202.623 373.017 203.233 373.24 203.93C373.366 204.295 373.412 204.684 373.374 205.069C373.336 205.454 373.215 205.826 373.02 206.16C372.841 206.451 372.6 206.701 372.316 206.891C372.031 207.081 371.708 207.206 371.37 207.26C370.561 207.358 369.743 207.17 369.058 206.728C368.373 206.286 367.864 205.618 367.62 204.84C367.48 204.472 367.423 204.078 367.452 203.686C367.481 203.294 367.597 202.913 367.79 202.57H367.84Z" fill="white"/>
<path d="M383.24 205.65C383.432 205.649 383.622 205.632 383.81 205.6C384.221 205.531 384.612 205.375 384.957 205.142C385.302 204.909 385.593 204.605 385.81 204.25C386.045 203.851 386.191 203.405 386.238 202.945C386.284 202.484 386.231 202.018 386.08 201.58C385.804 200.674 385.216 199.895 384.419 199.382C383.622 198.869 382.67 198.656 381.73 198.78C381.32 198.848 380.928 199.003 380.583 199.236C380.238 199.469 379.947 199.774 379.73 200.13C379.496 200.529 379.35 200.974 379.302 201.435C379.254 201.895 379.304 202.361 379.45 202.8C379.709 203.609 380.213 204.318 380.892 204.829C381.571 205.339 382.391 205.626 383.24 205.65ZM380.24 200.42C380.419 200.128 380.659 199.877 380.944 199.687C381.229 199.497 381.552 199.372 381.89 199.32C382.053 199.305 382.218 199.305 382.38 199.32C383.11 199.344 383.814 199.593 384.396 200.034C384.978 200.474 385.41 201.084 385.63 201.78C385.758 202.145 385.806 202.533 385.77 202.918C385.733 203.303 385.614 203.675 385.42 204.01C385.237 204.3 384.994 204.548 384.708 204.738C384.422 204.927 384.099 205.054 383.76 205.11C382.951 205.207 382.134 205.017 381.45 204.573C380.767 204.129 380.261 203.459 380.02 202.68C379.883 202.313 379.828 201.921 379.859 201.53C379.89 201.139 380.007 200.76 380.2 200.42H380.24Z" fill="white"/>
<path d="M391.83 198.76C391.65 199.377 391.65 200.033 391.83 200.65C392.004 201.2 392.298 201.706 392.69 202.13C392.45 201.06 392.14 199.94 391.83 198.76Z" fill="white"/>
<path d="M348.74 218.71C348.385 218.774 348.045 218.906 347.74 219.1C347.79 219.27 347.84 219.46 347.9 219.63C348.198 219.423 348.541 219.29 348.9 219.24C349.06 219.225 349.221 219.225 349.38 219.24C350.111 219.263 350.817 219.512 351.401 219.952C351.985 220.393 352.418 221.003 352.64 221.7C352.805 222.238 352.805 222.812 352.64 223.35H353.18C353.345 222.754 353.345 222.125 353.18 221.53C352.906 220.603 352.305 219.806 351.489 219.288C350.673 218.769 349.696 218.564 348.74 218.71Z" fill="white"/>
<path d="M364.59 222L365.32 221.85C365.512 221.472 365.626 221.06 365.657 220.638C365.688 220.216 365.635 219.792 365.5 219.39C365.224 218.484 364.636 217.705 363.839 217.192C363.042 216.679 362.09 216.466 361.15 216.59C360.74 216.659 360.349 216.815 360.004 217.048C359.659 217.281 359.368 217.585 359.15 217.94C358.916 218.34 358.77 218.784 358.722 219.245C358.674 219.705 358.724 220.171 358.87 220.61C359.153 221.469 359.708 222.214 360.45 222.73L361.29 222.6C360.843 222.392 360.443 222.093 360.116 221.723C359.789 221.353 359.542 220.92 359.39 220.45C359.265 220.084 359.219 219.696 359.257 219.311C359.295 218.926 359.416 218.554 359.61 218.22C359.791 217.93 360.032 217.683 360.316 217.495C360.601 217.307 360.923 217.182 361.26 217.13C361.423 217.115 361.587 217.115 361.75 217.13C362.481 217.153 363.187 217.402 363.771 217.843C364.355 218.283 364.788 218.894 365.01 219.59C365.134 219.956 365.179 220.344 365.141 220.729C365.103 221.113 364.983 221.485 364.79 221.82C364.728 221.885 364.661 221.945 364.59 222Z" fill="white"/>
<path d="M378.06 218.42C378.084 218.004 378.033 217.588 377.91 217.19C377.632 216.286 377.043 215.509 376.246 214.998C375.45 214.487 374.498 214.276 373.56 214.4C373.15 214.469 372.759 214.625 372.414 214.858C372.069 215.091 371.778 215.395 371.56 215.75C371.33 216.151 371.187 216.596 371.141 217.056C371.094 217.516 371.145 217.981 371.29 218.42C371.502 219.071 371.873 219.659 372.37 220.13L373 220C372.442 219.565 372.028 218.973 371.81 218.3C371.669 217.927 371.612 217.526 371.645 217.129C371.678 216.731 371.799 216.345 372 216C372.181 215.709 372.421 215.461 372.706 215.271C372.991 215.081 373.313 214.955 373.65 214.9C373.81 214.89 373.97 214.89 374.13 214.9C374.863 214.924 375.569 215.174 376.153 215.617C376.737 216.059 377.169 216.672 377.39 217.37C377.518 217.767 377.559 218.186 377.51 218.6L378.06 218.42Z" fill="white"/>
<path d="M386.001 212.25C385.59 212.319 385.199 212.475 384.854 212.708C384.509 212.941 384.218 213.245 384.001 213.6C383.77 214.001 383.627 214.446 383.58 214.906C383.534 215.366 383.585 215.831 383.731 216.27C383.746 216.322 383.766 216.372 383.791 216.42L384.301 216.23L384.241 216.11C384.114 215.744 384.068 215.356 384.106 214.971C384.144 214.586 384.265 214.214 384.461 213.88C384.641 213.587 384.883 213.337 385.17 213.147C385.456 212.957 385.781 212.832 386.121 212.78C386.28 212.765 386.441 212.765 386.601 212.78C387.133 212.795 387.655 212.932 388.127 213.179C388.598 213.427 389.006 213.78 389.321 214.21L389.821 213.99C389.408 213.374 388.832 212.886 388.157 212.579C387.483 212.271 386.736 212.158 386.001 212.25Z" fill="white"/>
</g>
<path d="M387.711 153.75C388.531 154.32 389.151 154.75 389.851 155.27C390.551 155.79 391.181 156.27 391.851 156.78C393.161 157.78 394.421 158.88 395.671 159.97C398.201 162.195 400.586 164.58 402.811 167.11C403.931 168.4 405.031 169.75 406.081 171.17C407.147 172.638 408.131 174.164 409.031 175.74C411.138 179.275 412.436 183.233 412.831 187.33V187.75C412.876 188.291 412.828 188.835 412.691 189.36C412.003 191.853 410.995 194.247 409.691 196.48C408.547 198.487 407.261 200.408 405.841 202.23C404.476 203.985 403.024 205.671 401.491 207.28C399.964 208.887 398.344 210.402 396.641 211.82C395.98 212.358 395.155 212.652 394.303 212.655C393.451 212.657 392.625 212.368 391.961 211.834C391.297 211.3 390.837 210.555 390.656 209.722C390.476 208.89 390.587 208.021 390.971 207.26L391.051 207.11L393.801 201.75C394.701 199.96 395.581 198.19 396.371 196.42C397.161 194.65 397.901 192.9 398.501 191.22C399.058 189.732 399.447 188.185 399.661 186.61L399.551 188.61C399.052 186.599 398.187 184.698 397.001 183C395.507 180.84 393.835 178.809 392.001 176.93C390.091 174.93 388.001 173.01 385.871 171.16C384.801 170.22 383.691 169.32 382.591 168.41L380.921 167.09C380.381 166.66 379.761 166.19 379.331 165.87L379.171 165.75C377.673 164.578 376.685 162.874 376.413 160.992C376.141 159.11 376.606 157.195 377.711 155.648C378.816 154.1 380.476 153.039 382.345 152.685C384.213 152.332 386.146 152.713 387.741 153.75H387.711Z" fill="#7F3E3B"/>
<path d="M360.37 150.67C362.32 158.15 379.78 169.07 379.78 169.07C379.78 169.07 394.09 164.07 395.07 157.12C393.51 154.73 388.49 148.02 381.57 145.86C375.4 143.93 366 144.15 360.37 150.67Z" fill="#263238"/>
<g opacity="0.4">
<path d="M360.5 150.53C360.781 150.327 361.101 150.184 361.44 150.11C361.643 150.062 361.851 150.039 362.06 150.04C362.767 150.059 363.453 150.29 364.028 150.701C364.604 151.113 365.043 151.687 365.29 152.35C365.435 152.707 365.5 153.092 365.481 153.477C365.462 153.862 365.359 154.239 365.18 154.58C365.015 154.881 364.786 155.142 364.51 155.346C364.233 155.55 363.916 155.691 363.58 155.76H363.42L363.82 156.23C364.206 156.133 364.569 155.957 364.885 155.715C365.202 155.472 365.465 155.168 365.66 154.82C365.874 154.41 365.997 153.958 366.022 153.495C366.046 153.033 365.97 152.571 365.8 152.14C365.484 151.265 364.872 150.528 364.071 150.055C363.27 149.583 362.329 149.404 361.41 149.55C361.1 149.87 360.8 150.19 360.5 150.53Z" fill="white"/>
<path d="M373.61 146.84C373.199 146.924 372.812 147.096 372.475 147.344C372.138 147.593 371.86 147.913 371.66 148.28C371.445 148.69 371.32 149.142 371.294 149.604C371.268 150.066 371.342 150.529 371.51 150.96C371.798 151.728 372.309 152.392 372.977 152.868C373.645 153.344 374.44 153.609 375.26 153.63C375.505 153.628 375.75 153.602 375.99 153.55C376.407 153.464 376.801 153.291 377.146 153.041C377.491 152.791 377.778 152.47 377.99 152.1C378.203 151.69 378.326 151.238 378.35 150.775C378.374 150.313 378.299 149.851 378.13 149.42C377.808 148.522 377.176 147.768 376.347 147.295C375.518 146.822 374.547 146.66 373.61 146.84ZM377.61 149.61C377.754 149.968 377.819 150.352 377.8 150.737C377.781 151.122 377.679 151.499 377.5 151.84C377.333 152.14 377.104 152.4 376.828 152.604C376.552 152.807 376.235 152.949 375.9 153.02C375.097 153.156 374.273 153.006 373.569 152.597C372.866 152.188 372.328 151.545 372.05 150.78C371.905 150.421 371.84 150.035 371.859 149.648C371.878 149.262 371.981 148.884 372.16 148.54C372.327 148.241 372.556 147.98 372.832 147.777C373.108 147.573 373.424 147.431 373.76 147.36C373.964 147.321 374.172 147.3 374.38 147.3C375.083 147.323 375.763 147.555 376.333 147.966C376.903 148.378 377.337 148.95 377.58 149.61H377.61Z" fill="white"/>
<path d="M383.8 148.22C384.089 148.987 384.6 149.65 385.268 150.124C385.937 150.598 386.731 150.861 387.55 150.88C387.796 150.883 388.041 150.857 388.28 150.8C388.634 150.725 388.972 150.59 389.28 150.4L388.84 150.03C388.638 150.137 388.423 150.217 388.2 150.27C387.398 150.408 386.572 150.259 385.868 149.849C385.165 149.44 384.627 148.796 384.35 148.03C384.215 147.666 384.151 147.279 384.16 146.89L383.65 146.66C383.582 147.185 383.634 147.718 383.8 148.22Z" fill="white"/>
<path d="M378.46 160.08C378.04 160.16 377.643 160.331 377.297 160.582C376.952 160.832 376.666 161.156 376.46 161.53C376.242 161.939 376.116 162.391 376.09 162.854C376.064 163.316 376.139 163.779 376.31 164.21C376.599 164.976 377.111 165.638 377.779 166.112C378.447 166.586 379.241 166.85 380.06 166.87C380.305 166.874 380.55 166.847 380.79 166.79C381.208 166.711 381.604 166.541 381.949 166.292C382.295 166.044 382.582 165.722 382.79 165.35C383.002 164.939 383.125 164.488 383.151 164.026C383.177 163.564 383.105 163.102 382.94 162.67C382.621 161.778 381.995 161.028 381.175 160.553C380.354 160.079 379.392 159.911 378.46 160.08ZM382.46 162.85C382.6 163.211 382.662 163.597 382.641 163.983C382.621 164.369 382.518 164.747 382.34 165.09C382.176 165.391 381.947 165.652 381.671 165.855C381.394 166.057 381.076 166.195 380.74 166.26C379.937 166.396 379.113 166.246 378.409 165.837C377.706 165.428 377.168 164.785 376.89 164.02C376.745 163.663 376.679 163.278 376.698 162.893C376.717 162.508 376.82 162.132 377 161.79C377.166 161.491 377.396 161.23 377.672 161.027C377.948 160.823 378.264 160.681 378.6 160.61C378.806 160.562 379.018 160.539 379.23 160.54C379.931 160.567 380.61 160.8 381.179 161.211C381.748 161.622 382.183 162.192 382.43 162.85H382.46Z" fill="white"/>
<path d="M390.75 157.34C390.331 157.418 389.934 157.587 389.588 157.836C389.243 158.085 388.956 158.408 388.75 158.78C388.532 159.189 388.406 159.641 388.38 160.104C388.354 160.566 388.429 161.029 388.6 161.46C388.929 162.321 389.534 163.049 390.32 163.53L390.78 163.17C390.011 162.764 389.418 162.092 389.11 161.28C388.965 160.921 388.9 160.535 388.919 160.148C388.938 159.761 389.041 159.383 389.22 159.04C389.385 158.741 389.614 158.481 389.891 158.279C390.167 158.077 390.484 157.938 390.82 157.87C391.026 157.822 391.238 157.799 391.45 157.8C392.003 157.816 392.544 157.962 393.031 158.226C393.517 158.49 393.935 158.865 394.25 159.32C394.35 159.15 394.44 158.97 394.53 158.78C394.084 158.226 393.499 157.8 392.835 157.547C392.171 157.294 391.451 157.223 390.75 157.34Z" fill="white"/>
</g>
<path d="M351.33 161C351.33 161 360.09 155.18 365.44 159.29C374.83 146.4 369.83 142.85 367.55 145.96C359.14 149.27 351.33 161 351.33 161Z" fill="white"/>
<path d="M351.33 161C351.33 161 346.19 158.35 344.57 160.68C343.8 152.81 347.22 149.57 348.74 150.63C348.17 152.8 351.33 161 351.33 161Z" fill="white"/>
<path d="M363.12 125.41C363.12 131.61 364.01 141.49 367.55 146C362.808 151.674 357.357 156.715 351.33 161C347.64 154.44 348.74 150.63 348.74 150.63C353.06 148.43 352.42 142.68 351.35 138.34L363.12 125.41Z" fill="#7F3E3B"/>
<path opacity="0.2" d="M351.35 138.38L358 131C358.376 132.209 358.427 133.495 358.15 134.73C357.238 138.3 355.095 141.434 352.1 143.58C352.03 141.825 351.779 140.083 351.35 138.38Z" fill="black"/>
<path d="M364.31 113.77C364.31 123.83 364.58 128.08 359.94 133.55C352.94 141.77 340.84 139.55 337.86 129.73C335.17 120.86 335.55 105.9 344.91 101.29C354.27 96.6802 364.26 103.7 364.31 113.77Z" fill="#7F3E3B"/>
<path d="M357.701 102.72C351.481 108.44 358.141 117 363.201 118.56C368.261 120.12 369.611 97.6602 357.701 102.72Z" fill="#263238"/>
<path d="M362.001 102.58C359.331 108.83 335.551 105.5 334.731 114.17C333.311 101.25 351.811 93.1701 362.001 102.58Z" fill="#263238"/>
<path d="M350.25 118C350.3 118.82 349.91 119.51 349.38 119.54C348.85 119.57 348.38 118.94 348.32 118.12C348.26 117.3 348.66 116.62 349.19 116.59C349.72 116.56 350.2 117.19 350.25 118Z" fill="#263238"/>
<path d="M340.22 118.8C340.28 119.62 339.89 120.31 339.35 120.34C338.81 120.37 338.35 119.74 338.29 118.92C338.23 118.1 338.63 117.42 339.16 117.38C339.69 117.34 340.17 118 340.22 118.8Z" fill="#263238"/>
<path d="M339.4 117.41L337.4 116.98C337.4 116.98 338.51 118.44 339.4 117.41Z" fill="#263238"/>
<path d="M342.72 118.87C342.112 120.777 341.244 122.591 340.14 124.26C340.575 124.532 341.065 124.705 341.575 124.767C342.084 124.829 342.601 124.779 343.09 124.62L342.72 118.87Z" fill="#630F0F"/>
<path d="M348.001 127.33C347.555 127.445 347.1 127.515 346.641 127.54C346.579 127.543 346.518 127.521 346.471 127.48C346.425 127.439 346.396 127.382 346.391 127.32C346.388 127.288 346.391 127.257 346.401 127.226C346.411 127.196 346.426 127.168 346.446 127.144C346.467 127.12 346.492 127.1 346.52 127.086C346.548 127.071 346.579 127.062 346.611 127.06C347.628 127.017 348.621 126.734 349.509 126.236C350.396 125.737 351.154 125.036 351.721 124.19C351.754 124.136 351.806 124.096 351.868 124.08C351.929 124.063 351.994 124.07 352.051 124.1C352.105 124.133 352.144 124.186 352.161 124.247C352.178 124.308 352.17 124.374 352.141 124.43C351.191 125.899 349.706 126.94 348.001 127.33Z" fill="#263238"/>
<path d="M367.34 122.34C366.911 123.324 366.278 124.206 365.483 124.928C364.689 125.65 363.75 126.196 362.73 126.53C360.11 127.28 358.79 124.42 359.5 121.53C360.15 118.9 362.28 115.34 364.91 115.89C367.54 116.44 368.53 119.75 367.34 122.34Z" fill="#7F3E3B"/>
<path d="M351.79 112.44C351.725 112.439 351.66 112.423 351.601 112.393C351.542 112.364 351.491 112.322 351.45 112.27C351.073 111.8 350.59 111.424 350.042 111.174C349.493 110.924 348.893 110.806 348.29 110.83C348.225 110.837 348.158 110.831 348.095 110.813C348.032 110.794 347.972 110.764 347.921 110.722C347.869 110.681 347.826 110.63 347.795 110.572C347.763 110.514 347.743 110.45 347.735 110.385C347.728 110.319 347.734 110.253 347.752 110.189C347.771 110.126 347.802 110.067 347.843 110.015C347.884 109.964 347.935 109.921 347.993 109.889C348.051 109.857 348.115 109.837 348.18 109.83C348.941 109.786 349.701 109.924 350.397 110.234C351.093 110.543 351.704 111.015 352.18 111.61C352.26 111.707 352.299 111.832 352.287 111.957C352.276 112.082 352.216 112.198 352.12 112.28C352.036 112.375 351.917 112.432 351.79 112.44Z" fill="#263238"/>
<path d="M335.23 113.8C335.108 113.812 334.986 113.776 334.89 113.7C334.84 113.66 334.799 113.611 334.768 113.555C334.738 113.499 334.719 113.438 334.712 113.374C334.706 113.311 334.712 113.247 334.73 113.186C334.749 113.125 334.779 113.069 334.82 113.02C335.289 112.413 335.897 111.927 336.593 111.605C337.29 111.283 338.053 111.134 338.82 111.17C338.952 111.183 339.074 111.248 339.159 111.352C339.243 111.455 339.283 111.587 339.27 111.72C339.256 111.852 339.191 111.974 339.088 112.059C338.985 112.143 338.852 112.183 338.72 112.17C338.116 112.154 337.518 112.282 336.974 112.543C336.43 112.803 335.955 113.19 335.59 113.67C335.542 113.716 335.486 113.751 335.424 113.773C335.362 113.796 335.295 113.805 335.23 113.8Z" fill="#263238"/>
<path d="M349.43 116.63L347.43 116.19C347.43 116.19 348.54 117.65 349.43 116.63Z" fill="#263238"/>
<path d="M392.28 205.67L389.37 209.13C388.408 210.276 387.767 211.656 387.51 213.13L387.24 214.68C387.11 215.414 387.238 216.171 387.603 216.822C387.967 217.473 388.546 217.977 389.24 218.25L392.87 219.67C393.663 219.976 394.546 219.958 395.326 219.619C396.106 219.28 396.722 218.649 397.04 217.86L397.68 216.25C397.68 216.25 400.9 210.39 400.14 205.25L398.74 204.81C397.67 204.442 396.53 204.329 395.409 204.478C394.287 204.627 393.216 205.035 392.28 205.67Z" fill="#7F3E3B"/>
</svg>
