<svg width="77" height="81" viewBox="0 0 77 81" fill="none" xmlns="http://www.w3.org/2000/svg">
<g clip-path="url(#clip0_13858_45096)">
<path d="M29.45 50.873C29.45 50.873 27.251 50.9562 27.7964 53.6851C29.978 53.0797 29.45 50.873 29.45 50.873Z" fill="#003366"/>
<path d="M25.5552 51.9C27.8122 52.107 28.0984 49.8558 28.0984 49.8558C28.0984 49.8558 26.0116 49.1557 25.5552 51.9Z" fill="#003366"/>
<path d="M23.4073 51.9328C25.4226 50.8962 24.4594 48.8384 24.4594 48.8384C24.4594 48.8384 22.3224 49.3702 23.4073 51.9328Z" fill="#003366"/>
<path d="M21.0405 49.7824C23.2762 50.1402 23.7153 47.9142 23.7153 47.9142C23.7153 47.9142 21.6807 47.0748 21.0405 49.7824Z" fill="#003366"/>
<path d="M18.4746 52.3083C20.7413 52.2909 20.7954 50.0223 20.7954 50.0223C20.7954 50.0223 18.6583 49.533 18.4746 52.3083Z" fill="#003366"/>
<path d="M19.7581 48.6876C19.7581 48.6876 17.9246 47.4692 16.772 50.0008C18.8955 50.786 19.7581 48.6876 19.7581 48.6876Z" fill="#003366"/>
<path d="M14.6951 49.4747C16.9096 48.999 16.5131 46.7671 16.5131 46.7671C16.5131 46.7671 14.3122 46.7188 14.6951 49.4747Z" fill="#003366"/>
<path d="M16.0297 45.6744C16.0297 45.6744 14.2891 44.3342 12.9604 46.7826C15.0337 47.7109 16.0297 45.6744 16.0297 45.6744Z" fill="#003366"/>
<path d="M19.7451 47.2255C21.7101 48.353 22.9091 46.4248 22.9091 46.4248C22.9091 46.4248 21.3039 44.9201 19.7451 47.2255Z" fill="#003366"/>
<path d="M17.7798 46.3611C20.0426 46.2586 20.0213 43.99 20.0213 43.99C20.0213 43.99 17.8591 43.5781 17.7798 46.3611Z" fill="#003366"/>
<path d="M24.7101 40.4448C24.7101 40.4448 23.0681 41.9089 25.2245 43.6669C26.5223 41.8102 24.7101 40.4448 24.7101 40.4448Z" fill="#003366"/>
<path d="M23.6751 38.155C23.6751 38.155 21.4838 38.3639 22.1801 41.056C24.3268 40.3288 23.6751 38.155 23.6751 38.155Z" fill="#003366"/>
<path d="M6.48255 38.832C6.48255 38.832 4.84058 40.298 6.997 42.056C8.29278 40.1994 6.48255 38.832 6.48255 38.832Z" fill="#003366"/>
<path d="M3.78429 40.9689C5.9291 40.2417 5.27734 38.0679 5.27734 38.0679C5.27734 38.0679 3.08612 38.2787 3.78429 40.9689Z" fill="#003366"/>
<path d="M26.8575 43.9319C28.8514 42.8585 27.8477 40.824 27.8477 40.824C27.8477 40.824 25.7164 41.3926 26.8575 43.9319Z" fill="#003366"/>
<path d="M19.0094 43.0056C21.2567 42.7077 21.0382 40.4488 21.0382 40.4488C21.0382 40.4488 18.8489 40.2264 19.0094 43.0056Z" fill="#003366"/>
<path d="M17.4148 43.9994C19.1554 42.545 17.7571 40.7542 17.7571 40.7542C17.7571 40.7542 15.7903 41.7424 17.4148 43.9994Z" fill="#003366"/>
<path d="M15.6018 41.8065C15.6018 41.8065 13.4319 41.4371 13.4048 44.2202C15.6656 44.0809 15.6018 41.8065 15.6018 41.8065Z" fill="#003366"/>
<path d="M19.7905 39.6037C22.0533 39.683 22.2138 37.4202 22.2138 37.4202C22.2138 37.4202 20.0922 36.8381 19.7905 39.6037Z" fill="#003366"/>
<path d="M17.6429 39.7563C19.5982 38.6094 18.519 36.6135 18.519 36.6135C18.519 36.6135 16.4129 37.2595 17.6429 39.7563Z" fill="#003366"/>
<path d="M46.4495 22.6482C46.4495 22.6482 45.9505 24.7911 48.7258 24.9845C48.7142 22.7198 46.4495 22.6482 46.4495 22.6482Z" fill="#003366"/>
<path d="M43.6427 21.7373C43.6427 21.7373 42.5539 23.65 45.159 24.6248C45.7953 22.451 43.6427 21.7373 43.6427 21.7373Z" fill="#003366"/>
<path d="M47.2004 28.2047C48.2467 26.1952 46.272 25.0754 46.272 25.0754C46.272 25.0754 44.8331 26.7426 47.2004 28.2047Z" fill="#003366"/>
<path d="M42.2021 22.5129C42.2021 22.5129 40.508 23.917 42.5986 25.7524C43.964 23.9441 42.2021 22.5129 42.2021 22.5129Z" fill="#003366"/>
<path d="M39.4286 25.0696C39.4286 25.0696 38.7498 27.1641 41.5 27.5935C41.674 25.3345 39.4286 25.0696 39.4286 25.0696Z" fill="#003366"/>
<path d="M51.5787 44.7827C51.5787 44.7827 50.0064 46.4169 51.5787 48.0454C53.4334 45.9683 51.5787 44.7827 51.5787 44.7827Z" fill="#003366"/>
<path d="M54.4159 47.6415C55.412 45.0422 53.2555 44.5896 53.2555 44.5896C53.2555 44.5896 52.3659 46.6764 54.4159 47.6415Z" fill="#003366"/>
<path d="M56.2578 48.7553C58.4896 47.0959 56.9153 45.5583 56.9153 45.5583C56.9153 45.5583 55.0413 46.8425 56.2578 48.7553Z" fill="#003366"/>
<path d="M58.024 45.135C58.024 45.135 57.2755 47.2759 59.3778 48.0998C60.2036 45.4348 58.024 45.135 58.024 45.135Z" fill="#003366"/>
<path d="M58.9454 51.3973C60.1929 48.9102 58.0945 48.2468 58.0945 48.2468C58.0945 48.2468 56.9998 50.235 58.9454 51.3973Z" fill="#003366"/>
<path d="M50.1866 56.0716C47.7981 54.6444 46.9819 56.6886 46.9819 56.6886C46.9819 56.6886 48.885 57.9302 50.1866 56.0716Z" fill="#003366"/>
<path d="M62.0143 46.7885C62.0143 46.7885 61.6952 49.0358 63.927 49.4342C64.2133 46.6744 62.0143 46.7885 62.0143 46.7885Z" fill="#003366"/>
<path d="M61.7944 46.5504C61.6165 43.7732 59.4736 44.2586 59.4736 44.2586C59.4736 44.2586 59.5297 46.5272 61.7944 46.5504Z" fill="#003366"/>
<path d="M63.1932 43.6187C63.1932 43.6187 62.0328 45.5643 63.9262 46.7982C65.2665 44.3594 63.1932 43.6187 63.1932 43.6187Z" fill="#003366"/>
<path d="M60.0936 43.576C61.3507 41.0928 59.2543 40.4236 59.2543 40.4236C59.2543 40.4236 58.1538 42.4079 60.0936 43.576Z" fill="#003366"/>
<path d="M61.8201 38.1282C61.8201 38.1282 60.1569 39.6754 61.6383 41.385C63.6033 39.4162 61.8201 38.1282 61.8201 38.1282Z" fill="#003366"/>
<path d="M52.8197 48.1829C52.8197 48.1829 50.9225 49.4303 52.1003 51.3662C54.365 49.7513 52.8197 48.1829 52.8197 48.1829Z" fill="#003366"/>
<path d="M44.958 57.7039C47.2227 56.0871 45.6755 54.5244 45.6755 54.5244C45.6755 54.5244 43.7802 55.768 44.958 57.7039Z" fill="#003366"/>
<path d="M49.426 59.1658C49.426 59.1658 48.0161 57.3885 46.1924 58.7307C48.0007 60.8368 49.426 59.1658 49.426 59.1658Z" fill="#003366"/>
<path d="M46.9719 62.0884C46.9719 62.0884 47.5985 59.9069 45.446 59.2029C44.7826 61.9047 46.9719 62.0884 46.9719 62.0884Z" fill="#003366"/>
<path d="M64.1075 40.0503C64.1075 40.0503 62.7769 41.8876 64.562 43.282C66.1169 40.967 64.1075 40.0503 64.1075 40.0503Z" fill="#003366"/>
<path d="M65.432 44.9452C67.9771 43.8216 66.7858 41.9746 66.7858 41.9746C66.7858 41.9746 64.6719 42.812 65.432 44.9452Z" fill="#003366"/>
<path d="M65.7212 40.5994C66.8622 38.06 64.7368 37.4875 64.7368 37.4875C64.7368 37.4875 63.7291 39.5183 65.7212 40.5994Z" fill="#003366"/>
<path d="M67.3834 41.18C69.7042 39.6483 68.2189 38.0256 68.2189 38.0256C68.2189 38.0256 66.2791 39.1918 67.3834 41.18Z" fill="#003366"/>
<path d="M69.4937 37.6309C69.4937 37.6309 68.84 39.8047 70.9848 40.5319C71.6849 37.8417 69.4937 37.6309 69.4937 37.6309Z" fill="#003366"/>
<path d="M39.4907 4.38135C37.7153 5.79124 39.0633 7.61693 39.0633 7.61693C39.0633 7.61693 41.0553 6.68281 39.4907 4.38135Z" fill="#003366"/>
<path d="M39.7513 9.57437C39.7513 9.57437 41.9444 9.40611 41.2985 6.70044C39.1382 7.38894 39.7513 9.57437 39.7513 9.57437Z" fill="#003366"/>
<path d="M44.4589 7.54157C44.4589 7.54157 46.2208 6.22451 44.223 4.28857C42.7647 6.02531 44.4589 7.54157 44.4589 7.54157Z" fill="#003366"/>
<path d="M42.4563 11.9202C42.4563 11.9202 44.2394 10.6302 42.2629 8.66333C40.7853 10.3788 42.4563 11.9202 42.4563 11.9202Z" fill="#003366"/>
<path d="M48.6148 2.02026C46.5357 2.91957 47.3616 5.03344 47.3616 5.03344C47.3616 5.03344 49.5276 4.64857 48.6148 2.02026Z" fill="#003366"/>
<path d="M46.2103 3.81682C46.2103 3.81682 47.5506 2.07622 45.1021 0.747559C44.1757 2.81307 46.2103 3.81682 46.2103 3.81682Z" fill="#003366"/>
<path d="M50.5413 3.7666C48.2786 3.87104 48.3018 6.13962 48.3018 6.13962C48.3018 6.13962 50.4659 6.5477 50.5413 3.7666Z" fill="#003366"/>
<path d="M53.2014 3.15918C51.3467 4.45883 52.5826 6.36769 52.5826 6.36769C52.5826 6.36769 54.6268 5.54767 53.2014 3.15918Z" fill="#003366"/>
<path d="M55.8401 4.96365C53.5754 4.9153 53.4458 7.18002 53.4458 7.18002C53.4458 7.18002 55.5751 7.73508 55.8401 4.96365Z" fill="#003366"/>
<path d="M49.423 7.19561C47.1757 6.92292 46.8218 9.16443 46.8218 9.16443C46.8218 9.16443 48.8854 9.92642 49.423 7.19561Z" fill="#003366"/>
<path d="M57.1408 16.4246C54.8915 16.1519 54.5396 18.3934 54.5396 18.3934C54.5396 18.3934 56.6031 19.1574 57.1408 16.4246Z" fill="#003366"/>
<path d="M50.4292 10.2859C50.4292 10.2859 52.5798 9.82177 51.5703 7.22827C49.526 8.20301 50.4292 10.2859 50.4292 10.2859Z" fill="#003366"/>
<path d="M49.2574 9.63989C47.2151 10.6224 48.1338 12.6995 48.1338 12.6995C48.1338 12.6995 50.2747 12.2315 49.2574 9.63989Z" fill="#003366"/>
<path d="M47.6381 14.9665C47.6381 14.9665 48.58 12.9764 45.9091 12.197C45.4372 14.4134 47.6381 14.9665 47.6381 14.9665Z" fill="#003366"/>
<path d="M47.6836 21.1396C47.6836 21.1396 47.0067 19.0451 44.5273 20.3118C45.7032 22.2478 47.6836 21.1396 47.6836 21.1396Z" fill="#003366"/>
<path d="M46.6137 18.5171C46.6137 18.5171 47.9346 16.7572 45.4746 15.4595C44.5675 17.5347 46.6137 18.5171 46.6137 18.5171Z" fill="#003366"/>
<path d="M50.8733 13.9416C50.8733 13.9416 52.9775 13.2937 51.7456 10.7988C49.7942 11.9476 50.8733 13.9416 50.8733 13.9416Z" fill="#003366"/>
<path d="M52.8232 9.2688C51.7904 11.284 53.7709 12.3903 53.7709 12.3903C53.7709 12.3903 55.1982 10.7077 52.8232 9.2688Z" fill="#003366"/>
<path d="M55.3508 10.5743C55.3508 10.5743 57.4917 10.0676 56.4338 7.49536C54.407 8.50878 55.3508 10.5743 55.3508 10.5743Z" fill="#003366"/>
<path d="M59.5141 7.95947C57.3983 8.76789 58.1333 10.9166 58.1333 10.9166C58.1333 10.9166 60.3168 10.6226 59.5141 7.95947Z" fill="#003366"/>
<path d="M54.6798 16.4961C54.6798 16.4961 56.3662 15.0804 54.2639 13.2585C52.9101 15.0707 54.6798 16.4961 54.6798 16.4961Z" fill="#003366"/>
<path d="M54.3554 20.8129C54.3554 20.8129 55.1425 18.7571 52.4214 18.1865C52.1178 20.4319 54.3554 20.8129 54.3554 20.8129Z" fill="#003366"/>
<path d="M8.70707 42.3945C10.6604 41.2476 9.58317 39.2517 9.58317 39.2517C9.58317 39.2517 7.47897 39.8977 8.70707 42.3945Z" fill="#003366"/>
<path d="M3.31006 30.9877C4.01404 33.1421 6.19366 32.5136 6.19366 32.5136C6.19366 32.5136 6.01186 30.3204 3.31006 30.9877Z" fill="#003366"/>
<path d="M2.48814 32.4982C2.48814 32.4982 3.38552 30.4887 0.697254 29.7693C0.283377 31.9953 2.48814 32.4982 2.48814 32.4982Z" fill="#003366"/>
<path d="M4.9913 28.6667C4.88686 30.9295 7.14965 31.1229 7.14965 31.1229C7.14965 31.1229 7.75499 28.9955 4.9913 28.6667Z" fill="#003366"/>
<path d="M7.99734 27.4368C7.99734 27.4368 7.37459 25.3248 4.86426 26.5239C5.98791 28.4908 7.99734 27.4368 7.99734 27.4368Z" fill="#003366"/>
<path d="M8.89233 26.6516C8.89233 26.6516 9.64079 24.5823 6.90805 24.062C6.64889 26.3132 8.89233 26.6516 8.89233 26.6516Z" fill="#003366"/>
<path d="M5.45197 24.6228C5.45197 24.6228 5.83877 22.4587 3.06348 22.4006C3.18338 24.6615 5.45197 24.6228 5.45197 24.6228Z" fill="#003366"/>
<path d="M7.93909 22.7372C7.93909 22.7372 9.07435 20.8515 6.49439 19.813C5.80395 21.9694 7.93909 22.7372 7.93909 22.7372Z" fill="#003366"/>
<path d="M10.3419 25.7792C10.3419 25.7792 11.7731 24.1082 9.40006 22.6538C8.36344 24.6671 10.3419 25.7792 10.3419 25.7792Z" fill="#003366"/>
<path d="M10.8921 21.5884C11.0855 23.8434 13.3599 23.7158 13.3599 23.7158C13.3599 23.7158 13.6732 21.542 10.8921 21.5884Z" fill="#003366"/>
<path d="M16.7804 28.1156C16.7804 28.1156 15.2448 26.5394 13.5854 28.7732C15.4982 29.9877 16.7804 28.1156 16.7804 28.1156Z" fill="#003366"/>
<path d="M19.5254 27.6417C19.5254 27.6417 19.2178 25.4621 16.5586 26.2879C17.3825 28.394 19.5254 27.6417 19.5254 27.6417Z" fill="#003366"/>
<path d="M17.9737 31.3319C17.9737 31.3319 17.3104 29.2335 14.8232 30.481C15.9856 32.4266 17.9737 31.3319 17.9737 31.3319Z" fill="#003366"/>
<path d="M16.7102 25.0232C16.7102 25.0232 16.834 22.8262 14.0664 23.1124C14.4629 25.3423 16.7102 25.0232 16.7102 25.0232Z" fill="#003366"/>
<path d="M16.4473 22.4431C17.7005 24.3307 19.6345 23.1432 19.6345 23.1432C19.6345 23.1432 18.8725 21.0797 16.4473 22.4431Z" fill="#003366"/>
<path d="M15.7793 20.3835C15.7793 20.3835 14.704 18.4611 12.5205 20.1901C14.0522 21.8552 15.7793 20.3835 15.7793 20.3835Z" fill="#003366"/>
<path d="M9.83918 31.1074C9.83918 31.1074 10.226 28.9413 7.45068 28.8833C7.56672 31.1461 9.83918 31.1074 9.83918 31.1074Z" fill="#003366"/>
<path d="M10.7115 29.2414C10.7115 29.2414 12.8776 28.8546 11.955 26.2244C9.87987 27.1295 10.7115 29.2414 10.7115 29.2414Z" fill="#003366"/>
<path d="M13.3752 32.4244C13.3752 32.4244 14.8064 30.7515 12.4334 29.2991C11.389 31.3162 13.3752 32.4244 13.3752 32.4244Z" fill="#003366"/>
<path d="M15.375 26.8468C15.375 26.8468 15.6883 24.6672 12.9072 24.7194C13.1084 26.9687 15.375 26.8468 15.375 26.8468Z" fill="#003366"/>
<path d="M10.109 32.1983C10.109 32.1983 8.21176 31.0824 7.20801 33.672C9.36249 34.3412 10.109 32.1983 10.109 32.1983Z" fill="#003366"/>
<path d="M0 34.1379C1.37701 35.9366 3.22785 34.6214 3.22785 34.6214C3.22785 34.6214 2.3266 32.6139 0 34.1379Z" fill="#003366"/>
<path d="M72.3776 33.1636C72.3776 33.1636 71.1862 35.0976 73.0719 36.3508C74.4354 33.9294 72.3776 33.1636 72.3776 33.1636Z" fill="#003366"/>
<path d="M72.6562 31.3705C72.6562 31.3705 72.84 33.6333 75.1028 33.5288C74.774 30.7671 72.6562 31.3705 72.6562 31.3705Z" fill="#003366"/>
<path d="M73.4004 29.4059C73.4004 29.4059 74.174 31.5333 76.3246 30.8545C75.288 28.2726 73.4004 29.4059 73.4004 29.4059Z" fill="#003366"/>
<path d="M68.6502 34.0067C68.6502 34.0067 68.3717 36.2598 70.6094 36.6176C70.8453 33.8442 68.6502 34.0067 68.6502 34.0067Z" fill="#003366"/>
<path d="M70.345 27.1721C70.345 27.1721 72.6058 26.9632 72.4724 24.7004C69.7184 25.0621 70.345 27.1721 70.345 27.1721Z" fill="#003366"/>
<path d="M74.4606 23.48C72.2171 25.1278 73.7856 26.675 73.7856 26.675C73.7856 26.675 75.6635 25.3985 74.4606 23.48Z" fill="#003366"/>
<path d="M68.9479 26.2185C68.9479 26.2185 70.9863 25.2225 70.0657 23.1531C67.6134 24.4682 68.9479 26.2185 68.9479 26.2185Z" fill="#003366"/>
<path d="M66.82 23.0988C66.82 23.0988 69.0751 23.3503 69.4077 21.1107C66.6324 20.9057 66.82 23.0988 66.82 23.0988Z" fill="#003366"/>
<path d="M61.269 25.0598C61.269 25.0598 63.524 25.3112 63.8567 23.0716C61.0891 22.8666 61.269 25.0598 61.269 25.0598Z" fill="#003366"/>
<path d="M65.7007 22.6948C65.7007 22.6948 67.6676 21.5615 66.6078 19.5598C64.2502 21.0374 65.7007 22.6948 65.7007 22.6948Z" fill="#003366"/>
<path d="M63.7688 19.1572C62.0881 21.3736 64.0299 22.4083 64.0299 22.4083C64.0299 22.4083 65.4688 20.6541 63.7688 19.1572Z" fill="#003366"/>
<path d="M65.8821 30.1038C64.2014 32.3201 66.1432 33.3568 66.1432 33.3568C66.1432 33.3568 67.582 31.6007 65.8821 30.1038Z" fill="#003366"/>
<path d="M60.6826 27.4757C60.6826 27.4757 62.868 28.0868 63.5565 25.9285C60.8509 25.2806 60.6826 27.4757 60.6826 27.4757Z" fill="#003366"/>
<path d="M60.4823 31.3435C60.4823 31.3435 62.7316 31.6394 63.1068 29.4095C60.3353 29.1484 60.4823 31.3435 60.4823 31.3435Z" fill="#003366"/>
<path d="M58.5069 28.4559C58.5069 28.4559 58.6442 26.1892 56.3911 25.9707C56.3253 28.7518 58.5069 28.4559 58.5069 28.4559Z" fill="#003366"/>
<path d="M54.5742 27.8487C54.5742 27.8487 56.2548 26.3247 54.7927 24.5938C52.8046 26.5394 54.5742 27.8487 54.5742 27.8487Z" fill="#003366"/>
<path d="M67.8584 24.2478C65.2881 25.3134 66.4427 27.1875 66.4427 27.1875C66.4427 27.1875 68.5681 26.3984 67.8584 24.2478Z" fill="#003366"/>
<path d="M65.7316 18.8942C65.7316 18.8942 65.7316 16.6256 63.4746 16.5386C63.5694 19.3255 65.7316 18.8942 65.7316 18.8942Z" fill="#003366"/>
<path d="M57.6397 33.0765C57.6397 33.0765 59.0786 31.3223 57.3786 29.8235C55.698 32.0418 57.6397 33.0765 57.6397 33.0765Z" fill="#003366"/>
<path d="M59.8894 26.8102C59.8894 26.8102 61.1601 24.9285 59.3286 23.594C57.8607 25.9573 59.8894 26.8102 59.8894 26.8102Z" fill="#003366"/>
<path d="M69.4889 29.0188C67.6013 26.9746 66.2417 28.7055 66.2417 28.7055C66.2417 28.7055 67.7173 30.4287 69.4889 29.0188Z" fill="#003366"/>
<path d="M73.8983 27.6011C71.1772 27.0209 71.0688 29.2276 71.0688 29.2276C71.0688 29.2276 73.2755 29.7788 73.8983 27.6011Z" fill="#003366"/>
<path d="M19.9461 19.1631C19.9461 19.1631 20.4335 17.0163 17.6562 16.8423C17.6795 19.1051 19.9461 19.1631 19.9461 19.1631Z" fill="#003366"/>
<path d="M16.772 20.225C18.0059 22.1242 19.9515 20.958 19.9515 20.958C19.9515 20.958 19.2107 18.8848 16.772 20.225Z" fill="#003366"/>
<path d="M39.5156 38.0507C39.5156 38.0507 39.8289 35.8711 37.0479 35.9233C37.2509 38.1725 39.5156 38.0507 39.5156 38.0507Z" fill="#003366"/>
<path d="M29.8384 47.2332C29.8384 47.2332 30.1517 45.0556 27.3687 45.1058C27.5717 47.3551 29.8384 47.2332 29.8384 47.2332Z" fill="#003366"/>
<path d="M42.9357 42.4447C42.9357 42.4447 41.4001 40.8685 39.7407 43.1023C41.6535 44.3149 42.9357 42.4447 42.9357 42.4447Z" fill="#003366"/>
<path d="M45.6762 41.9748C45.6762 41.9748 45.3707 39.7952 42.7095 40.6114C43.5334 42.7272 45.6762 41.9748 45.6762 41.9748Z" fill="#003366"/>
<path d="M40.2222 37.4415C40.609 39.6714 42.8659 39.3523 42.8659 39.3523C42.8659 39.3523 42.9897 37.1553 40.2222 37.4415Z" fill="#003366"/>
<path d="M45.7903 37.4723C45.7903 37.4723 45.0283 35.4068 42.603 36.7702C43.8563 38.6656 45.7903 37.4723 45.7903 37.4723Z" fill="#003366"/>
<path d="M38.6758 34.515C40.2056 36.1841 41.9326 34.7084 41.9326 34.7084C41.9326 34.7084 40.8573 32.7899 38.6758 34.515Z" fill="#003366"/>
<path d="M13.7583 18.1652C13.7583 18.1652 12.685 16.2428 10.5015 17.9718C12.0313 19.6312 13.7583 18.1652 13.7583 18.1652Z" fill="#003366"/>
<path d="M38.8755 30.45C36.8003 31.3551 37.6319 33.467 37.6319 33.467C37.6319 33.467 39.798 33.0763 38.8755 30.45Z" fill="#003366"/>
<path d="M41.5303 41.18C41.5303 41.18 41.8436 39.0023 39.0625 39.0526C39.2656 41.2961 41.5303 41.18 41.5303 41.18Z" fill="#003366"/>
<path d="M44.1612 29.6918C44.1612 29.6918 45.515 27.9512 43.0627 26.6187C42.1383 28.6822 44.1612 29.6918 44.1612 29.6918Z" fill="#003366"/>
<path d="M46.1028 35.2867C46.1028 35.2867 45.3621 33.2135 42.9233 34.5518C44.1572 36.4529 46.1028 35.2867 46.1028 35.2867Z" fill="#003366"/>
<path d="M35.9957 31.4498C36.4463 29.2296 34.2416 28.6978 34.2416 28.6978C34.2416 28.6978 33.3171 30.6956 35.9957 31.4498Z" fill="#003366"/>
<path d="M26.1716 18.6797C25.719 20.898 27.9238 21.4318 27.9238 21.4318C27.9238 21.4318 28.8502 19.4359 26.1716 18.6797Z" fill="#003366"/>
<path d="M23.049 20.7102C23.049 20.7102 25.2305 20.9964 25.1512 18.2153C22.8981 18.4455 23.049 20.7102 23.049 20.7102Z" fill="#003366"/>
<path d="M26.6899 26.3363C28.1733 28.0479 29.941 26.6245 29.941 26.6245C29.941 26.6245 28.9218 24.6731 26.6899 26.3363Z" fill="#003366"/>
<path d="M37.2756 28.8023C37.2756 28.8023 37.6082 26.6265 34.8271 26.6459C35.0089 28.899 37.2756 28.8023 37.2756 28.8023Z" fill="#003366"/>
<path d="M36.5009 34.4398C36.5009 34.4398 36.47 32.2389 33.7295 32.7185C34.2826 34.9155 36.5009 34.4398 36.5009 34.4398Z" fill="#003366"/>
<path d="M56.1607 33.8191C53.9115 34.086 54.099 36.3449 54.099 36.3449C54.099 36.3449 56.2864 36.5983 56.1607 33.8191Z" fill="#003366"/>
<path d="M51.91 30.9954C51.91 30.9954 50.9856 32.9932 53.6642 33.7474C54.1167 31.5272 51.91 30.9954 51.91 30.9954Z" fill="#003366"/>
<path d="M54.5539 30.3186C54.5539 30.3186 54.8866 28.1429 52.1055 28.1622C52.2873 30.4212 54.5539 30.3186 54.5539 30.3186Z" fill="#003366"/>
<path d="M52.0013 34.2986C50.5972 36.0759 52.3262 37.5458 52.3262 37.5458C52.3262 37.5458 54.0552 36.1804 52.0013 34.2986Z" fill="#003366"/>
<path d="M28.775 21.0508C28.514 23.302 30.7574 23.6404 30.7574 23.6404C30.7574 23.6404 31.5078 21.571 28.775 21.0508Z" fill="#003366"/>
<path d="M41.1237 12.5372C41.1237 12.5372 40.9864 10.3421 38.2729 10.9513C38.9286 13.1193 41.1237 12.5372 41.1237 12.5372Z" fill="#003366"/>
<path d="M28.1372 17.8035C29.1235 19.8438 31.2007 18.9271 31.2007 18.9271C31.2007 18.9271 30.7268 16.7784 28.1372 17.8035Z" fill="#003366"/>
<path d="M14.8851 15.9258C14.6259 18.177 16.8694 18.5154 16.8694 18.5154C16.8694 18.5154 17.6198 16.446 14.8851 15.9258Z" fill="#003366"/>
<path d="M17.5742 15.2025C17.5742 15.2025 17.0965 13.0538 14.5107 14.0789C15.4893 16.1173 17.5742 15.2025 17.5742 15.2025Z" fill="#003366"/>
<path d="M25.863 23.4258C23.6137 23.6965 23.8033 25.9574 23.8033 25.9574C23.8033 25.9574 25.9906 26.2049 25.863 23.4258Z" fill="#003366"/>
<path d="M25.4356 27.667C23.8633 29.2974 25.4356 30.9316 25.4356 30.9316C25.4356 30.9316 27.2903 29.7422 25.4356 27.667Z" fill="#003366"/>
<path d="M28.9604 25.0038C28.9604 25.0038 29.8867 23.0079 27.2082 22.2517C26.7537 24.47 28.9604 25.0038 28.9604 25.0038Z" fill="#003366"/>
<path d="M65.7343 13.6511C65.7343 13.6511 63.5798 13.2082 63.458 15.9893C65.7343 15.9197 65.7343 13.6511 65.7343 13.6511Z" fill="#003366"/>
<path d="M69.143 16.2932C69.143 16.2932 66.9866 15.8522 66.8667 18.6314C69.1314 18.5637 69.143 16.2932 69.143 16.2932Z" fill="#003366"/>
<path d="M56.3115 24.6073C58.5762 24.5396 58.5878 22.271 58.5878 22.271C58.5878 22.271 56.4334 21.8281 56.3115 24.6073Z" fill="#003366"/>
<path d="M63.2485 12.0402C63.2485 12.0402 62.1191 10.1507 59.9878 11.9416C61.5679 13.5642 63.2485 12.0402 63.2485 12.0402Z" fill="#003366"/>
<path d="M59.335 17.0918C59.2789 19.3565 61.5436 19.4938 61.5436 19.4938C61.5436 19.4938 62.1026 17.3645 59.335 17.0918Z" fill="#003366"/>
<path d="M60.9813 22.0814C60.9813 22.0814 61.2308 19.8941 58.4497 20.0217C58.7205 22.271 60.9813 22.0814 60.9813 22.0814Z" fill="#003366"/>
<path d="M63.1672 14.2972C63.1672 14.2972 62.2002 12.3187 59.9258 13.9104C61.3608 15.6684 63.1672 14.2972 63.1672 14.2972Z" fill="#003366"/>
<path d="M40.6275 19.2194C40.6275 19.2194 39.6083 17.268 37.3765 18.9313C38.8598 20.6429 40.6275 19.2194 40.6275 19.2194Z" fill="#003366"/>
<path d="M42.0793 16.1731C42.0793 16.1731 42.8278 14.1018 40.0951 13.5815C39.8359 15.8327 42.0793 16.1731 42.0793 16.1731Z" fill="#003366"/>
<path d="M40.4727 17.7282C40.4727 17.7282 41.3971 15.7323 38.7204 14.9761C38.2698 17.1982 40.4727 17.7282 40.4727 17.7282Z" fill="#003366"/>
<path d="M33.3212 7.78734C33.3212 7.78734 35.1257 6.52637 33.1917 4.52661C31.6831 6.21693 33.3212 7.78734 33.3212 7.78734Z" fill="#003366"/>
<path d="M61.0273 10.6496C61.0273 10.6496 62.8317 9.38867 60.8977 7.38892C59.3892 9.07537 61.0273 10.6496 61.0273 10.6496Z" fill="#003366"/>
<path d="M19.7365 12.1427C19.7365 12.1427 21.1696 10.4717 18.7965 9.01929C17.758 11.0326 19.7365 12.1427 19.7365 12.1427Z" fill="#003366"/>
<path d="M27.6326 4.51685C26.0409 6.12787 27.5978 7.77951 27.5978 7.77951C27.5978 7.77951 29.4583 6.61137 27.6326 4.51685Z" fill="#003366"/>
<path d="M24.5063 14.9664C24.8139 17.2098 27.0728 16.9816 27.0728 16.9816C27.0728 16.9816 27.2816 14.7904 24.5063 14.9664Z" fill="#003366"/>
<path d="M24.1863 12.7502C24.1863 12.7502 25.6523 11.1101 23.3102 9.60742C22.231 11.5898 24.1863 12.7502 24.1863 12.7502Z" fill="#003366"/>
<path d="M22.1566 14.4907C21.4236 16.6336 23.5432 17.4459 23.5432 17.4459C23.5432 17.4459 24.7172 15.5873 22.1566 14.4907Z" fill="#003366"/>
<path d="M28.7652 11.1777C28.7652 11.1777 30.5213 9.84904 28.5157 7.91504C27.0691 9.66725 28.7652 11.1777 28.7652 11.1777Z" fill="#003366"/>
<path d="M30.4693 13.6281C30.4693 13.6281 32.6509 13.3457 31.8637 10.6787C29.7441 11.4775 30.4693 13.6281 30.4693 13.6281Z" fill="#003366"/>
<path d="M31.7952 9.92827C31.7952 9.92827 32.5688 7.86662 29.8399 7.31543C29.5556 9.56274 31.7952 9.92827 31.7952 9.92827Z" fill="#003366"/>
<path d="M23.6016 7.21693C21.569 6.21706 20.4937 8.21488 20.4937 8.21488C20.4937 8.21488 22.1917 9.61703 23.6016 7.21693Z" fill="#003366"/>
<path d="M18.7383 15.9722C18.7383 15.9722 20.9392 15.9857 20.5156 13.2356C18.3089 13.7442 18.7383 15.9722 18.7383 15.9722Z" fill="#003366"/>
<path d="M24.9885 2.88647C23.3968 4.49943 24.9537 6.14914 24.9537 6.14914C24.9537 6.14914 26.82 4.97907 24.9885 2.88647Z" fill="#003366"/>
<path d="M35.6253 7.39282C33.9099 8.87427 35.3294 10.6439 35.3294 10.6439C35.3294 10.6439 37.2828 9.62853 35.6253 7.39282Z" fill="#003366"/>
<path d="M32.7685 9.43726C32.1129 11.6072 34.2615 12.3383 34.2615 12.3383C34.2615 12.3383 35.3697 10.4294 32.7685 9.43726Z" fill="#003366"/>
<path d="M49.3186 46.9337C49.2449 46.7197 49.0984 46.5383 48.9047 46.4212C48.5179 46.2433 48.0402 46.5237 47.7695 46.8583C46.9843 47.8253 46.6265 49.5659 46.7155 51.8867C47.9261 50.6199 48.3303 48.9489 49.0846 47.3708C49.1523 47.2315 49.2335 47.0826 49.3186 46.9337Z" fill="#003366"/>
<path d="M26.5358 38.1184C26.8298 38.2171 27.1012 38.3737 27.3337 38.5789C27.5662 38.7842 27.7552 39.034 27.8896 39.3136C27.8145 38.8162 27.6894 38.3277 27.5163 37.8554C27.0908 36.784 25.9691 35.7976 24.1937 34.9215C22.1591 33.9197 20.1323 34.7745 18.3511 35.8982C19.7165 35.7048 21.109 36.1361 22.4937 36.4358C23.2673 36.6041 25.0079 36.7124 25.5359 37.4028C25.1356 37.5827 24.6849 37.4454 24.3368 37.7026C24.8513 38.072 25.8898 37.8747 26.5358 38.1184Z" fill="#003366"/>
<path d="M41.0726 65.2679C40.7458 65.03 40.4054 64.7844 40.0689 64.5639C39.5293 64.21 38.746 63.7555 38.1658 63.9005C38.0358 63.938 37.9153 64.003 37.8126 64.0911C37.7098 64.1792 37.6271 64.2883 37.5702 64.4111C37.2491 64.9913 37.5199 66.1323 38.3302 67.6003C39.1831 69.1475 41.2931 70.8881 43.3296 71.3832C43.1099 70.797 42.9347 70.1951 42.8055 69.5826C41.6451 69.0353 39.8407 67.9232 39.9412 67.0375C39.9664 66.8247 40.1018 66.4747 40.7245 66.4747H40.7613C41.2061 66.4747 41.8752 66.6874 42.5638 66.9717C42.5638 66.7319 42.5638 66.4921 42.5483 66.2503C42.3623 66.1515 42.1815 66.043 42.0068 65.9254C41.6896 65.7146 41.3763 65.4864 41.0726 65.2679Z" fill="#003366"/>
<path d="M27.9183 14.7729C29.2282 15.2324 30.3508 16.1097 31.1133 17.2697L31.1674 17.3219L31.3608 17.525C31.5426 17.7184 31.7322 17.9021 31.9178 18.1052C32.0029 18.1999 32.0919 18.2986 32.1809 18.3875C32.8887 19.1418 33.6198 19.9212 33.6874 21.0255C33.7097 21.8356 33.4989 22.6351 33.0802 23.3289C32.7822 23.8318 32.3879 24.2708 31.9198 24.6208C31.7717 24.7454 31.6309 24.8784 31.4982 25.0192C31.4111 25.1082 31.3241 25.1952 31.2351 25.2803C30.6163 26.375 29.8678 27.4174 29.2644 28.4328C29.0305 28.8242 28.8187 29.2284 28.63 29.6434C28.6636 30.1498 28.7393 30.6524 28.8563 31.1462C29.0265 31.9764 29.3852 32.7566 29.9045 33.4263C30.653 34.345 31.1965 35.0838 31.3666 36.2461C31.7225 38.6772 33.0028 40.352 35.1708 41.2281C35.879 41.4891 36.6171 41.66 37.3679 41.7368C37.1396 41.0192 37.1648 40.2863 37.2344 39.4256C36.8225 39.6306 36.1572 41.1217 35.9599 39.7737C35.8245 38.8512 36.2558 38.4025 35.7007 37.4529C35.2837 36.785 34.8318 36.1394 34.3469 35.5189L33.8596 35.0393C32.5058 33.7126 30.9586 32.2079 31.0533 30.1521C31.0843 29.4945 31.357 28.1407 32.1654 27.7249C32.2823 27.6564 32.4149 27.6192 32.5504 27.6168C32.6859 27.6144 32.8197 27.647 32.939 27.7114C33.0273 27.7631 33.1069 27.8284 33.1749 27.9048C33.366 27.2934 33.6147 26.7015 33.9176 26.1371C34.3527 25.3248 34.8072 24.2959 35.8013 24.1528C36.5943 24.0368 38.6114 25.3403 39.1007 24.4004C38.8512 24.3307 38.5611 24.381 38.3271 24.3017C38.0041 24.1954 37.8572 23.9149 37.4781 23.8743C37.8088 22.6694 39.6732 22.6501 40.617 22.2439C41.9534 21.6637 43.0693 20.4357 43.7269 19.165C44.8215 17.0511 44.4328 14.947 44.8273 12.719C45.1348 10.9784 46.6685 9.21844 46.6221 7.43722C45.3804 8.69626 43.9879 10.3653 43.4793 12.0788C42.8585 14.1792 43.0442 16.5792 41.8547 18.4784C40.9148 19.9812 39.5533 20.4473 37.9345 20.8747C37.2267 21.0681 36.7741 21.1242 36.7625 20.3099C36.7844 19.6798 36.8818 19.0545 37.0526 18.4475C37.3156 17.3084 37.685 16.2041 38.0003 15.0804C37.3253 15.0611 36.5536 16.3414 36.368 16.881C36.0914 17.6874 36.1842 18.5539 36.045 19.3836C35.9425 19.9986 35.6079 20.9443 35.0509 21.2943C34.7244 20.2802 34.5702 19.2186 34.5945 18.1535C34.6288 17.0032 35.0045 15.889 35.6737 14.9528C36.279 14.154 36.9482 13.2276 37.2499 12.2684C37.7353 10.7212 37.8301 8.733 37.5922 7.13745C36.8979 7.80275 37.0623 9.34028 36.9675 10.2319C36.8875 11.2319 36.4355 12.1655 35.7007 12.8486C35.0548 13.4288 34.3876 13.8523 33.7938 14.4925C33.1517 15.1868 33.1111 15.7554 32.7978 16.558C32.3839 16.5464 31.5891 15.2525 31.2042 14.9431C29.8136 13.8194 27.7559 13.3069 26.6883 11.8487C26.194 11.1089 25.7773 10.3202 25.4447 9.495C25.1372 8.79876 24.8491 7.58613 24.2186 7.13744C24.151 8.21274 24.3501 9.12174 24.8336 10.0984C25.4428 11.3246 26.8121 11.9763 27.224 13.2837C27.2405 13.3239 27.2429 13.3684 27.231 13.4102C27.2191 13.4519 26.3489 13.2583 26.3137 13.2837C24.8593 13.0903 24.4507 13.8813 23.0698 13.1947C22.4064 12.8621 21.7759 11.9918 20.9907 12.0343C21.95 14.6569 25.7987 14.0302 27.9183 14.7729Z" fill="#003366"/>
<path d="M40.5416 66.8771C40.3695 66.9138 40.3366 66.997 40.3269 67.0821C40.2612 67.6449 41.6595 68.579 42.7212 69.1186C42.6383 68.5508 42.5898 67.9786 42.5762 67.405C41.8799 67.0956 41.1856 66.8596 40.735 66.8596C40.6701 66.8591 40.6054 66.865 40.5416 66.8771Z" fill="#003366"/>
<path d="M57.2218 41.1199C56.777 41.2475 56.3322 41.3462 55.9261 41.4351L55.6592 41.4931C55.1583 41.6053 54.6438 41.7059 54.1004 41.8103C52.1083 42.1971 50.0486 42.5955 48.4918 43.6167C47.0297 44.5701 46.6487 46.1309 46.2793 47.6607C46.025 48.8071 45.855 49.9706 45.7706 51.1419C45.7474 51.3991 45.73 51.6525 45.7107 51.9155C45.6894 52.2152 45.6623 52.5227 45.6333 52.8322C45.8402 52.6736 46.0472 52.5131 46.2483 52.3468C46.2831 52.3197 46.3141 52.2887 46.3469 52.2597C46.2 49.6353 46.5752 47.7419 47.4706 46.6318C47.8439 46.1676 48.4821 45.8195 49.0681 46.0845C49.2762 46.1871 49.4472 46.3521 49.5574 46.5564C49.714 46.303 49.8784 46.0516 50.0254 45.8118C50.4993 45.0478 51.1529 44.5585 51.9188 44.0847C53.7658 42.9417 54.9823 43.6418 56.8331 44.0015C56.3825 43.4213 55.7887 43.2453 55.2376 42.8527C55.8004 42.1256 56.5333 41.6459 57.2218 41.1199Z" fill="#003366"/>
<path d="M45.813 30.3881C44.5385 29.7615 43.4091 31.1172 42.0243 30.6821C41.3706 30.4771 40.9239 30.1676 40.6376 29.572C40.4732 29.2316 40.4829 28.6611 40.1135 28.5431C39.8872 32.297 43.9448 31.2758 45.902 33.117C47.6 34.7183 47.6851 37.6445 47.2674 39.8183C47.074 40.7853 46.7529 41.5995 45.8826 42.1527C45.4649 42.4195 44.9563 42.4795 44.5443 42.7445C44.0009 43.0926 43.8326 43.7424 43.3646 44.1737C41.4847 45.9027 39.2529 44.634 37.9358 42.8528C37.7715 42.6336 37.6308 42.3976 37.5162 42.1488C36.662 42.0686 35.8216 41.8795 35.0155 41.586C32.7121 40.6557 31.3506 38.8784 30.9734 36.3023C30.8187 35.2386 30.3043 34.5404 29.5945 33.6701C29.0376 32.9555 28.6524 32.1224 28.4689 31.2352C28.4283 31.0631 28.3625 30.7594 28.3103 30.3959C28.0218 31.1624 27.8472 31.9671 27.792 32.7843C28.5704 33.6967 29.227 34.7063 29.7453 35.7878C30.031 36.428 30.2313 37.103 30.341 37.7953C30.5344 38.7217 30.7046 39.5959 31.3718 40.4101C32.186 41.4061 33.2826 41.8239 34.443 42.2648C34.7795 42.3925 35.1277 42.5259 35.468 42.6729C37.3034 43.4678 39.1562 45.2045 40.1889 47.0979C41.4529 49.3751 42.1096 51.9393 42.0959 54.5438C42.0959 55.066 42.0688 55.5611 42.0437 56.0407C42.034 56.2051 42.0262 56.3695 42.0185 56.5339C42.0611 56.4353 42.1094 56.3405 42.1578 56.2361C42.765 55.0234 43.8694 54.1357 44.9273 53.3351L45.2038 53.1262C45.2522 52.7065 45.285 52.2791 45.3141 51.8633C45.3334 51.608 45.3527 51.3508 45.3759 51.0897C45.4127 50.6661 45.4572 50.2136 45.5133 49.7494C44.4534 48.1751 44.2678 46.6376 44.9505 45.0479C45.3373 44.164 46.0103 43.3943 46.6679 42.6478C47.6987 41.4874 48.6715 40.3811 48.6019 38.8823C48.5286 37.9597 48.3719 37.0457 48.1338 36.1514C47.8437 34.9195 47.544 33.6372 47.6755 32.3415C47.7857 31.2313 48.2228 30.1831 49.0931 28.9415C49.3818 28.5077 49.5818 28.0209 49.6814 27.5094C49.7809 26.9978 49.7782 26.4716 49.6733 25.9612C49.4945 26.5782 49.199 27.1553 48.803 27.6612C48.4162 28.1717 46.6466 30.6105 46.459 28.8912C45.9542 29.2219 45.8324 29.8079 45.813 30.3881Z" fill="#003366"/>
<path d="M32.1011 57.5899C32.2732 57.9264 32.4473 58.2668 32.6097 58.6149C32.7113 58.853 32.7959 59.0979 32.8631 59.3479C32.9372 59.6427 33.0429 59.9286 33.1783 60.2008C33.4452 59.7173 33.4607 58.5994 33.3466 57.6595C33.2402 56.7795 32.8263 55.9189 32.3796 55.2227C32.3426 55.9462 32.2625 56.667 32.1398 57.381C32.1294 57.4506 32.1165 57.5203 32.1011 57.5899Z" fill="#003366"/>
<path d="M34.5317 61.2336C34.0946 65.3897 37.4192 69.5788 40.9139 71.8841C41.8554 72.5029 42.8644 73.0122 43.9213 73.4023C44.0277 73.4429 44.1476 73.4835 44.2752 73.5241C43.9986 72.9575 43.7376 72.3966 43.5016 71.8222C41.2369 71.3987 38.9142 69.4531 37.9936 67.7879C37.3728 66.6642 36.7365 65.1344 37.2316 64.2274C37.3134 64.057 37.4309 63.9061 37.576 63.785C37.7211 63.6639 37.8906 63.5754 38.0729 63.5254C38.7923 63.3474 39.6317 63.8135 40.2834 64.2409C40.6277 64.4653 40.97 64.7148 41.3007 64.9546C41.6024 65.1712 41.9119 65.3975 42.2232 65.6044C42.3296 65.676 42.434 65.7398 42.5385 65.7978C42.5254 65.1852 42.4731 64.5741 42.3818 63.9682C41.3742 63.2469 40.5677 62.187 39.9082 61.2297C39.1346 60.106 38.6685 58.7348 38.3939 56.7815C38.2643 55.8667 38.4423 54.7256 38.6299 53.5169C39.0167 51.0859 39.4035 48.5736 37.4811 47.3648C36.4947 46.7421 35.286 46.4307 34.1159 46.129L33.5357 45.9762C32.6093 45.7346 31.7318 45.3341 30.9422 44.7926L31.0138 44.9299C30.9944 45.9724 30.859 47.0225 30.9635 48.0591C30.9635 48.1094 30.9789 48.1578 30.9847 48.2061C30.8991 48.1882 30.8126 48.1747 30.7256 48.1655C29.6948 48.0823 28.7432 48.0359 27.7608 47.7458C26.2561 47.2991 25.44 46.626 25.2098 45.0537C24.4981 45.2606 25.1441 46.4578 25.3239 46.9664C23.4634 46.8252 22.3282 43.4659 22.0864 42.0405C21.1542 42.0927 22.4423 44.4986 22.6453 45.0344C23.1134 46.276 23.7226 47.2952 24.9023 48.0572C25.9061 48.707 27.1148 48.6974 28.136 49.1867C29.2735 49.7751 30.324 50.5184 31.2574 51.3953C31.5575 51.676 31.8284 51.9864 32.0659 52.3217C32.0755 52.3623 32.0852 52.4048 32.0968 52.4455C33.1083 53.2674 33.967 54.099 34.4892 55.625C34.9978 57.1141 34.7889 58.9824 34.6033 60.6321C34.5762 60.839 34.553 61.0382 34.5317 61.2336ZM35.5451 48.4073C35.615 48.3209 35.7035 48.2514 35.8039 48.2038C35.9044 48.1563 36.0142 48.132 36.1253 48.1326C36.3562 48.1457 36.5818 48.2066 36.7879 48.3115C36.994 48.4164 37.176 48.5629 37.3225 48.7418C37.953 49.4652 37.9375 50.3587 37.8698 50.9679C37.7789 51.7956 37.572 52.2598 37.218 52.4281C37.1283 52.4719 37.0297 52.4944 36.9299 52.4938C36.7212 52.4822 36.5201 52.4118 36.3497 52.2907C35.7347 51.9039 35.2686 50.8402 35.1409 50.525C34.7889 49.6624 34.8953 49.088 35.5451 48.4073Z" fill="#003366"/>
<path d="M36.5493 51.9659C36.7602 52.0993 36.9361 52.138 37.0503 52.08C37.1644 52.022 37.3945 51.7512 37.4854 50.9196C37.5763 50.088 37.4351 49.4536 37.0309 48.9856C36.8062 48.7221 36.4864 48.558 36.1413 48.5292C36.0852 48.5278 36.0295 48.5393 35.9786 48.5627C35.9276 48.5862 35.8827 48.621 35.8473 48.6645L35.8357 48.6781C35.2884 49.2583 35.2071 49.6664 35.4992 50.3897C35.7332 50.9737 36.1413 51.7029 36.5493 51.9659Z" fill="#003366"/>
<path d="M30.781 61.6938C30.2763 64.4111 32.16 66.8615 31.9995 69.5575C31.9337 70.6541 31.4985 71.9073 30.8971 73.0387C30.988 73.1122 31.0692 73.1915 31.1485 73.2688C31.3999 73.5145 31.6107 73.7253 32.0381 73.7233C32.6183 73.7233 33.2333 73.2746 33.6859 72.5378C34.502 71.2091 34.3957 69.5575 34.1849 68.1167C33.9683 66.6333 33.6878 65.6295 32.8311 64.56C31.8351 63.3107 31.398 62.5448 31.2626 61.0247C31.2382 60.7378 31.2292 60.4499 31.2355 60.1621C31.0401 60.6586 30.8881 61.1711 30.781 61.6938Z" fill="#003366"/>
<path d="M50.5926 79.334H50.5675C50.0859 79.2837 49.585 79.2315 49.0918 79.1618C48.418 79.0371 47.7664 78.8136 47.1578 78.4985C46.9412 78.3998 46.7169 78.2954 46.4925 78.2045C44.8989 77.5469 43.6264 77.3903 42.6033 77.721C42.5229 77.7406 42.4472 77.7761 42.3809 77.8254C42.5255 77.982 42.6931 78.1157 42.8779 78.2219C43.2144 78.4463 43.5761 78.6532 43.9261 78.8543C44.0983 78.951 44.2684 79.0477 44.4367 79.1483C44.605 79.2489 44.7345 79.3301 44.8815 79.4229C47.2894 79.6415 49.5928 80.5214 52.0741 80.3648C51.9426 79.6801 51.2502 79.4732 50.5926 79.334Z" fill="#003366"/>
<path d="M39.4865 78.9995C38.8386 78.5256 38.1695 78.0325 37.5022 77.5915C36.4888 76.9223 35.692 76.6729 34.5684 76.6729H34.5568C33.0289 76.6729 31.9729 77.4136 30.8551 78.1949C29.9983 78.7945 29.1145 79.4153 27.9889 79.6938C27.2366 79.8872 26.4823 79.7344 25.7532 79.5932C25.2113 79.4663 24.6561 79.4052 24.0996 79.4114C24.7492 79.5658 25.3773 79.7997 25.9698 80.1076C27.3913 80.8019 29.4181 80.8812 30.9982 80.5969C32.849 80.274 34.3518 79.3708 36.2974 79.746C37.4346 79.9645 38.5698 80.3165 39.765 80.1521C40.1043 80.102 40.4393 80.0257 40.7668 79.9239C40.3317 79.6222 39.9081 79.3108 39.4865 78.9995Z" fill="#003366"/>
<path d="M57.4285 36.6814C56.4015 37.5904 55.1077 37.4357 53.9473 37.9753C54.1194 38.0043 54.2896 38.041 54.4501 38.0759C54.657 38.1223 54.8524 38.1648 55.0303 38.19C55.7784 38.3007 56.5421 38.1606 57.2022 37.7916C58.204 37.1843 58.5057 36.051 58.351 34.9331C58.2733 35.6109 57.9441 36.2348 57.4285 36.6814Z" fill="#003366"/>
<path d="M69.1901 31.5544C68.2018 32.0649 67.7048 32.8134 66.8828 33.4884C66.1885 34.0531 65.0243 34.1072 64.1578 34.2368C63.3475 34.3567 62.6686 34.6391 61.9511 34.8344C61.7577 33.9371 62.688 33.4806 63.2334 32.9817C63.7948 32.4836 64.1982 31.8322 64.3938 31.1076C64.6645 30.2238 64.5446 29.3071 64.7187 28.4174C64.8502 27.7366 64.9585 27.0423 65.1055 26.3635C65.2679 25.6092 65.8655 24.8782 65.9835 24.1761C66.2253 22.7276 65.1035 24.7138 64.8947 25.089C64.3493 26.056 63.8658 26.9263 63.6782 28.0538C63.5003 29.1253 63.7149 30.3069 63.2604 31.33C62.8736 32.2003 62.0072 32.2371 61.2955 32.7515C60.8429 33.0784 60.0423 34.1401 59.58 33.6334C59.1739 33.1886 59.4891 31.8928 59.58 31.3822C59.6736 30.6496 59.8689 29.9336 60.1602 29.2548C60.2685 29.0247 61.162 27.5278 60.2995 28.0944C59.8914 28.3633 59.5665 29.5643 59.3093 30.0091C58.9012 30.7189 58.5357 31.4615 58.4409 32.2835C58.4014 32.7427 58.3917 33.2039 58.4119 33.6644C59.0656 35.2386 58.9515 37.1997 57.4178 38.13C56.6817 38.545 55.8286 38.7035 54.9926 38.5806C54.7992 38.5535 54.5806 38.5071 54.3756 38.4626C54.0492 38.3775 53.7147 38.3269 53.3777 38.3118C52.9193 38.6077 52.3913 38.9655 51.9117 38.979C51.0433 39.0061 50.7204 37.5865 50.4883 36.985C50.1402 36.0819 49.4439 35.0626 49.4052 34.084C49.3569 32.8966 49.7456 31.9296 50.4245 30.9258C51.0201 30.0439 51.1226 29.3921 51.3354 28.3691C51.7222 26.4989 53.0876 25.0484 54.5168 23.8841C56.2574 22.4626 57.6944 21.6271 58.027 19.2425C58.1309 18.2788 58.2996 17.3232 58.5318 16.3821C58.7252 15.6859 59.083 15.0593 59.0037 14.3166C58.5608 14.363 58.3964 15.0902 58.1005 15.3745C57.588 14.0323 58.1992 12.1215 57.5203 10.8547C56.7912 11.7115 57.1567 12.9338 57.3037 13.9627C57.4971 15.2643 57.6905 16.9101 57.3772 18.1923C57.045 19.4149 56.2575 20.464 55.1763 21.1243C54.3795 21.6329 53.3409 21.7374 52.6157 22.3214C52.2695 22.6019 51.7028 23.9615 51.3296 23.9769C50.8654 23.9963 50.6778 22.7875 50.6314 22.4665C50.378 20.7646 50.9679 19.6661 51.757 18.2233C52.1051 17.5831 53.5479 15.2836 52.6466 14.7266C52.2966 15.1231 52.2598 15.8213 52.0065 16.3125C51.7357 16.8366 51.2986 17.322 50.9679 17.8094C50.6372 18.2968 50.1769 18.7764 50.0009 19.3566C49.8675 19.8304 49.9545 20.4164 49.7128 20.8245C48.7999 20.2598 49.032 18.1169 49.1925 17.2524C49.413 16.0688 49.8752 14.6086 49.2776 13.4676C49.4459 14.9123 48.4557 16.6393 48.2739 18.0976C48.1184 19.3285 48.2118 20.5781 48.5485 21.7722C48.8502 22.8281 49.6238 23.7797 49.765 24.8666C50.2717 26.1701 50.3606 27.8546 49.4207 29.1949C48.5891 30.3785 48.1733 31.3706 48.0669 32.4092C47.9431 33.6508 48.2352 34.8925 48.5175 36.0954C48.7619 37.0125 48.9231 37.9498 48.9991 38.8958C49.0823 40.5513 48.0108 41.764 46.9742 42.9379C46.336 43.6593 45.6765 44.4058 45.3206 45.2336C44.7404 46.5642 44.8468 47.8599 45.6107 49.1809C45.6881 48.6509 45.7848 48.1133 45.9105 47.593C46.2973 45.9994 46.6976 44.3536 48.2855 43.315C49.912 42.2533 52.0103 41.8471 54.0391 41.4545C54.5806 41.3501 55.0912 41.2495 55.5863 41.1393L55.8551 41.0813C56.6134 40.9334 57.3542 40.7072 58.0657 40.4063C58.2762 40.1986 58.4648 39.9698 58.6285 39.7236C59.7038 38.101 60.783 37.2307 62.7479 36.9115C63.4925 36.7916 64.4885 36.6679 65.1422 36.3139C66.0473 35.8266 66.7049 34.7358 67.376 33.9931C68.5364 32.7128 70.2673 31.9122 71.5786 30.7498C70.7421 30.8787 69.9341 31.1508 69.1901 31.5544Z" fill="#003366"/>
<path d="M56.6579 79.4439C56.957 79.4311 57.2552 79.4027 57.5514 79.3588C57.2907 79.2054 57.0401 79.0355 56.801 78.8502C56.5301 78.6268 56.2719 78.3885 56.0274 78.1366C55.5864 77.7014 55.13 77.2527 54.6407 77.0516C53.9058 76.7537 53.1062 76.6511 52.3199 76.7537C51.6082 76.8524 50.9796 77.1405 50.3143 77.4538C50.0571 77.5738 49.7922 77.6975 49.5195 77.8097L49.2545 77.9238C48.9426 78.0737 48.615 78.1885 48.2778 78.2661C48.1541 78.2913 48.0071 78.3048 47.8639 78.3203L47.7344 78.3338C48.1813 78.5464 48.6559 78.6948 49.1443 78.7748C49.6336 78.8425 50.1287 78.8947 50.6083 78.945L50.7127 78.9566C51.1759 78.9932 51.6409 79.0029 52.1052 78.9856C52.5133 78.9856 52.9349 78.972 53.3333 78.9972C53.7568 79.0335 54.1766 79.1046 54.5885 79.2099C54.896 79.2796 55.2151 79.3511 55.5265 79.3898C55.9015 79.4388 56.2799 79.4569 56.6579 79.4439Z" fill="#003366"/>
<path d="M17.0107 36.3333C19.1381 34.8576 21.6968 33.2563 24.3715 34.5733C26.2417 35.4939 27.4234 36.5499 27.8818 37.7122C28.1849 38.5611 28.3615 39.4499 28.4059 40.3502C28.843 41.2108 29.3419 42.0173 29.8467 42.8644C30.0478 43.2009 30.2412 43.5342 30.4269 43.8643C30.4501 43.8894 30.4695 43.9184 30.4946 43.9416C31.2411 44.6727 32.3861 45.2819 33.6335 45.6146L34.2137 45.7654C35.4108 46.0748 36.6505 46.394 37.6949 47.0496C39.8223 48.3937 39.3968 51.1535 39.0177 53.5884C38.8359 54.7682 38.6619 55.8802 38.7837 56.7389C39.0487 58.6285 39.4974 59.9474 40.2342 61.0208C40.799 61.8389 41.472 62.7343 42.2804 63.4074C42.2263 63.1502 42.1721 62.8987 42.1141 62.6512C42.1667 62.4338 42.2313 62.2194 42.3075 62.0091C42.733 60.8738 43.3673 60.1292 44.3092 59.4059C44.9203 58.9379 45.6108 58.5743 46.1736 58.0521C46.3031 57.9322 46.775 57.6344 46.8098 57.4526C46.864 57.1741 46.601 57.2785 46.4114 57.3675C46.0385 57.5657 45.6781 57.7866 45.3323 58.0289C44.7521 58.3848 44.2144 58.7484 43.6768 59.1448C43.816 58.4679 44.1235 57.4371 43.9804 57.0774C43.6439 57.6402 43.2803 58.6246 43.1372 58.9224C42.9979 59.2145 42.8803 59.5163 42.7852 59.8256C42.3984 60.108 42.0116 60.3594 41.6499 60.6243C41.4487 59.6842 41.4408 58.713 41.6267 57.7698C41.6074 57.1896 41.6267 56.6094 41.6673 56.0292C41.6925 55.5553 41.7195 55.0622 41.7195 54.5535C41.7331 52.0138 41.0923 49.5135 39.859 47.2933C38.865 45.4695 37.0857 43.8005 35.3257 43.0385C34.9931 42.8934 34.6488 42.7619 34.3162 42.6362C33.1558 42.1952 31.9625 41.7407 31.0825 40.6654C30.3553 39.7758 30.16 38.8127 29.9724 37.8824C29.8664 37.2225 29.676 36.579 29.4058 35.9678C28.9006 34.9158 28.2616 33.9336 27.5046 33.0455C26.4661 32.6316 25.4352 32.1616 24.3599 32.152C24.1152 32.1491 23.8706 32.1594 23.627 32.1829C23.5883 31.7439 23.6792 31.3068 23.861 30.6357C23.3349 30.9606 22.9056 31.6975 22.4356 32.3763H22.335C21.8631 32.4227 20.8265 32.854 20.4242 32.326C20.08 31.8754 20.401 30.9858 20.5944 30.5274C20.8401 29.9472 21.3448 29.7035 21.7548 29.2529C22.1181 28.8666 22.3625 28.3838 22.4588 27.8623C22.5196 27.435 22.528 27.0018 22.484 26.5724C22.4743 26.3461 22.4704 26.1179 22.4685 25.8897C22.6916 25.2426 22.9772 24.6188 23.3214 24.0272C23.7956 23.2214 24.0447 22.303 24.0428 21.368C23.9325 22.0855 23.4239 22.7218 22.9887 23.2846C22.7444 23.6165 22.5622 23.99 22.4511 24.3869C22.4352 23.7832 22.3162 23.1867 22.0991 22.6231C21.5189 21.1958 21.8013 19.6854 21.3719 18.262C19.933 20.0026 21.3526 22.4665 21.5498 24.3521C21.6562 25.3752 21.6388 26.4795 21.2307 27.4465C20.9252 27.0868 20.4204 26.6633 20.2985 26.4235C20.1079 26.0161 19.9457 25.5961 19.8131 25.1663C19.7145 24.8724 19.6197 24.2438 19.407 24.0775C18.8654 24.5243 19.5559 25.9303 19.817 26.3983C20.2308 27.1429 20.5035 27.7231 20.5906 28.4832C20.1574 29.0247 19.6448 29.5063 19.2561 30.0884C18.8132 30.7498 18.643 32.0224 18.0957 32.5291C17.6509 32.9352 13.8177 33.0784 13.2607 32.9739C12.5423 32.8401 11.8814 32.4914 11.3654 31.974C10.6691 31.2952 10.7446 30.5932 10.379 29.748C9.79884 31.7478 11.0521 33.6295 12.8932 34.349C12.3846 35.2676 10.6962 35.316 9.79884 35.6912C8.51273 36.2288 7.49738 37.1862 6.014 36.6717C5.047 36.3391 4.6602 35.4765 4.24439 34.6062C3.97169 34.026 3.8015 32.9817 3.08398 32.8463C3.63131 33.9293 3.84598 34.9737 4.21344 36.1186C4.93676 38.3737 7.8629 38.7837 9.91681 38.4529C10.5724 38.3485 11.1178 38.0294 11.6806 37.7045C12.5836 37.1962 13.529 36.7671 14.5062 36.4222C13.7945 38.0236 12.959 39.71 11.1739 40.3657C11.8411 40.9884 13.4367 39.2884 13.9453 38.9442C13.9744 41.3559 10.3636 42.5994 10.6575 44.9841C10.9264 44.2356 11.0695 43.5548 11.7174 43.0133C12.3324 42.4989 13.0364 42.1082 13.6166 41.5338C15.1406 40.0427 15.0806 37.3796 17.0107 36.3333Z" fill="#003366"/>
<path d="M37.3709 74.9572C37.4301 74.9611 37.4894 74.9518 37.5446 74.9301C37.5997 74.9084 37.6494 74.8747 37.69 74.8315C38.1291 74.4157 37.6281 73.5183 37.3032 72.9246C37.2297 72.7931 37.1621 72.6732 37.1098 72.5745C37.0576 72.4759 37.0363 72.4005 36.9957 72.2902C36.901 72.0369 36.7424 71.6133 36.5567 71.565C36.5115 71.5619 36.4662 71.5682 36.4236 71.5835C36.381 71.5988 36.342 71.6228 36.3092 71.654C35.9417 72.3734 35.8005 73.3946 36.3092 74.0676C36.723 74.6381 37.0886 74.9321 37.3709 74.9572Z" fill="#003366"/>
<path d="M32.7456 28.0478C32.6813 28.0135 32.6089 27.9973 32.536 28.0007C32.4632 28.0041 32.3927 28.027 32.3318 28.0671C31.7322 28.3746 31.4615 29.5195 31.4305 30.1674C31.3589 31.732 32.3221 32.9485 33.4322 34.0799C32.5774 32.32 32.5329 30.2583 33.0338 28.3553C32.9653 28.23 32.8662 28.1242 32.7456 28.0478Z" fill="#003366"/>
<path d="M32.7475 23.1354C33.129 22.5075 33.3216 21.7831 33.3025 21.0486C33.2445 20.0816 32.5599 19.3564 31.9004 18.6524L31.7882 18.5325C32.069 19.2088 32.2639 19.9177 32.3684 20.6425C32.5618 21.9266 32.264 23.118 31.7515 24.2474C32.1529 23.9454 32.4913 23.5676 32.7475 23.1354Z" fill="#003366"/>
<path d="M20.8633 79.8174C21.4434 79.582 22.051 79.4215 22.6716 79.3397C23.122 79.1741 23.5921 79.0682 24.0699 79.0245C24.6636 79.0149 25.2562 79.0799 25.8337 79.2179C26.5532 79.3571 27.232 79.4886 27.9012 79.3223C28.9571 79.0612 29.8139 78.4617 30.6417 77.8815C31.7576 77.1079 32.9141 76.2917 34.5638 76.2898H34.5735C35.7687 76.2898 36.6525 76.5663 37.722 77.2723C38.3989 77.719 39.0758 78.2141 39.7218 78.6918C40.2227 79.0612 40.7275 79.4306 41.2419 79.7845C41.6095 79.6658 41.9841 79.5702 42.3636 79.4983C42.9226 79.4046 43.4892 79.3638 44.0559 79.3764L43.731 79.183C43.3751 78.98 43.0077 78.7692 42.6595 78.539C42.3114 78.3089 41.9478 78.0652 41.9884 77.7654C42.0233 77.5217 42.2863 77.4096 42.4797 77.3457C43.5937 76.986 44.9533 77.1523 46.6359 77.8408C46.8138 77.9143 46.9878 77.9917 47.16 78.071C47.3744 77.988 47.6013 77.9416 47.8311 77.9337C47.9645 77.9201 48.1038 77.9047 48.2179 77.8853C48.5267 77.8115 48.8268 77.7051 49.1133 77.5682L49.386 77.4502C49.649 77.3419 49.9121 77.22 50.1596 77.1021C50.823 76.7946 51.5134 76.4754 52.2773 76.3691C53.1292 76.2583 53.9953 76.3696 54.7915 76.6921C55.3505 76.9222 55.834 77.398 56.302 77.8525C56.5385 78.0944 56.7884 78.323 57.0504 78.5371C57.4038 78.8133 57.7842 79.053 58.1857 79.2527C59.3461 79.0593 60.4059 78.8137 61.6805 79.2527C60.6825 78.3011 59.6343 78.4655 58.2631 78.2857C56.7062 78.0729 56.2788 76.9531 55.1687 75.9649C53.3739 74.3674 51.8809 75.9649 49.7709 75.9649C47.5835 75.9649 46.1388 77.2858 44.9359 74.8547C44.7927 74.5666 44.6516 74.2842 44.5123 74.0019C44.2435 73.9187 43.9921 73.8375 43.7851 73.762C42.6976 73.3622 41.6593 72.8392 40.6907 72.2032C37.1032 69.8321 33.6877 65.5077 34.1441 61.1891C34.1635 60.9957 34.1867 60.7926 34.2099 60.5895C34.3897 58.9805 34.5967 57.1567 34.1113 55.7545C33.7504 54.7025 33.0986 53.7743 32.2314 53.0779C32.3225 53.5576 32.373 54.0441 32.3823 54.5323C32.9625 55.3387 33.5871 56.4469 33.7264 57.6073C33.7767 58.0135 33.9875 60.077 33.2932 60.6592L33.1559 60.7733L33.0301 60.6456C32.7594 60.3652 32.6221 59.901 32.4886 59.4524C32.4275 59.22 32.3493 58.9924 32.2546 58.7716C32.1598 58.5666 32.0612 58.3635 31.9587 58.1604C31.8833 58.4254 31.7943 58.6846 31.6996 58.934C31.6207 59.6099 31.6045 60.2917 31.6512 60.9705C31.7827 62.4559 32.2314 63.156 33.1346 64.297C34.0378 65.4381 34.3414 66.5269 34.5638 68.0374C34.7862 69.5478 34.8926 71.2846 34.0126 72.7177C33.7612 73.1277 33.065 74.0715 32.038 74.0889H32.0206C31.4539 74.0889 31.1464 73.7891 30.8737 73.5242C30.8157 73.4661 30.7596 73.412 30.7016 73.3617L30.6861 73.3926C28.9765 73.3926 26.9245 72.5127 25.7138 72.0388C23.1048 71.0332 21.1786 73.381 19.8132 75.3982C19.172 76.394 18.3762 77.2813 17.4556 78.0265C18.062 77.9868 18.6562 77.8381 19.2098 77.5875C19.7495 77.3197 20.2504 76.9801 20.6989 76.5779C21.2018 75.8914 21.6795 75.1971 22.3351 74.6188C23.6889 73.4294 25.5166 74.2804 26.7388 75.7521C26.4098 75.5846 26.0669 75.4461 25.7138 75.3382C24.9924 75.1603 24.6269 75.3382 23.9287 75.5084C22.6194 75.8101 21.5654 76.5896 20.4669 77.249C19.4819 78.0384 18.2473 78.4499 16.9857 78.4094C16.8522 78.4094 16.7168 78.4094 16.5815 78.3959C15.0923 78.4752 14.1353 78.365 13.9419 79.8174C15.5819 78.9181 16.1115 79.8116 17.7979 79.6298C19.3935 79.4557 20.6757 78.5003 22.3448 78.4694C21.7414 78.7556 21.109 79.2101 20.8633 79.8174ZM35.9853 71.4374L36.0027 71.4045L36.0337 71.3793C36.1135 71.2983 36.2121 71.2382 36.3208 71.2045C36.4294 71.1708 36.5447 71.1644 36.6564 71.1859C37.0432 71.2884 37.2134 71.7661 37.3565 72.1529C37.3933 72.2496 37.4281 72.3463 37.4571 72.4024C37.5035 72.4972 37.5654 72.6094 37.6369 72.7351C38.0237 73.4313 38.6155 74.4873 37.958 75.11C37.8866 75.1829 37.8014 75.2409 37.7075 75.2808C37.6136 75.3206 37.5127 75.3414 37.4107 75.3421H37.343C36.8073 75.2976 36.3218 74.7252 36.0008 74.2997C35.3684 73.4777 35.5405 72.2671 35.9795 71.4374H35.9853Z" fill="#003366"/>
</g>
<defs>
<clipPath id="clip0_13858_45096">
<rect width="76.3235" height="80" fill="white" transform="translate(0 0.747559)"/>
</clipPath>
</defs>
</svg>
